<svg width="77" height="113" viewBox="0 0 77 113" fill="none" xmlns="http://www.w3.org/2000/svg">
<g id="Frame" clip-path="url(#clip0_2175_288)">
<g id="Clip path group">
<mask id="mask0_2175_288" style="mask-type:luminance" maskUnits="userSpaceOnUse" x="-65" y="0" width="164" height="122">
<g id="__lottie_element_396">
<path id="Vector" d="M98.0737 0H-64.0316V121.071H98.0737V0Z" fill="white"/>
</g>
</mask>
<g mask="url(#mask0_2175_288)">
<g id="Group">
<g id="Clip path group_2">
<mask id="mask1_2175_288" style="mask-type:luminance" maskUnits="userSpaceOnUse" x="-51" y="-29" width="172" height="171">
<g id="__lottie_element_399">
<path id="Vector_2" d="M-50.6579 -28.6536H120.363V141.654H-50.6579V-28.6536Z" fill="white"/>
</g>
</mask>
<g mask="url(#mask1_2175_288)">
<g id="Group_2">
<g id="Group_3">
<g id="Group_4">
<path id="Vector_3" d="M1.43462 26.8511C1.43462 26.4064 1.61212 25.9794 1.92823 25.6654C2.58475 25.0149 3.64492 25.0149 4.30145 25.6654L19.1689 40.4708C19.8263 41.1254 19.8263 42.1876 19.1689 42.843C18.5116 43.4976 17.4458 43.4976 16.7884 42.843L1.92823 28.036C1.61212 27.722 1.43462 27.2958 1.43462 26.8511Z" fill="#E8EDEA"/>
</g>
</g>
<g id="Group_5">
<g id="Group_6">
<path id="Vector_4" d="M21.8104 2.94202C22.7118 2.71037 23.6317 3.25116 23.8635 4.1487L28.9115 24.2587C29.0233 24.6897 28.9593 25.1465 28.7315 25.5307C28.5038 25.9141 28.1334 26.1918 27.6997 26.3032C26.7992 26.534 25.8793 25.994 25.6467 25.0965L20.5987 4.98652C20.3669 4.08897 20.91 3.17287 21.8104 2.94202Z" fill="#E8EDEA"/>
</g>
</g>
<g id="Group_7">
<g id="Group_8">
<path id="Vector_5" d="M49.9552 13.1637V33.8346C49.9552 34.7596 49.2022 35.5102 48.2733 35.5102C47.3428 35.5102 46.5899 34.7596 46.5899 33.8346V13.1637C46.5899 12.2387 47.3428 11.488 48.2733 11.488C49.2022 11.488 49.9552 12.2387 49.9552 13.1637Z" fill="#E8EDEA"/>
</g>
</g>
<g id="Group_9">
<g id="Group_10">
<path id="Vector_6" d="M54.3546 63.6135H54.3554L54.3465 63.6054C53.6275 62.8886 52.6727 62.4552 51.6571 62.3866C50.6424 62.3164 49.6373 62.6166 48.8268 63.2285L44.8722 67.1665C44.1063 67.9309 43.6751 68.9656 43.6751 70.0448C43.6751 71.1239 44.1063 72.1595 44.8722 72.923L44.9808 73.0328C45.4898 73.5454 46.1277 73.911 46.828 74.0942C47.5283 74.2774 48.2659 74.2694 48.9613 74.0708C50.5929 72.7979 52.8056 71.0295 53.8326 70.1416C54.8571 69.2336 55.4901 67.9672 55.5995 66.6055C55.6036 65.482 55.1562 64.4045 54.3546 63.6135ZM61.2716 75.5737C61.2343 74.7004 60.8671 73.8739 60.2447 73.258H60.2284C59.6724 72.7148 58.9502 72.3718 58.1762 72.2822C57.4013 72.1918 56.6192 72.3613 55.9529 72.7632C54.4551 74.045 51.6369 76.267 50.9633 76.786C50.366 77.5286 50.0604 78.4609 50.1042 79.4109C50.1479 80.3609 50.537 81.2625 51.2 81.9469L51.401 82.1487C51.9262 82.6483 52.5811 82.9922 53.292 83.1399C54.0028 83.2884 54.7412 83.2351 55.4228 82.9865L60.2528 78.1767C60.3111 78.1017 60.376 78.0315 60.4465 77.9669C61.0139 77.3018 61.3089 76.447 61.2716 75.5737ZM65.7725 81.9897C64.9789 81.1914 63.8969 80.7451 62.7686 80.7491L62.4242 80.6991L58.2167 84.8889C57.6161 85.6404 57.317 86.5856 57.3754 87.5428C57.4346 88.5009 57.8487 89.4033 58.5369 90.0756L58.6876 90.2346C59.2526 90.7843 59.9731 91.1491 60.752 91.2791C61.531 91.409 62.3326 91.3001 63.0475 90.9635H63.0458L65.7141 88.0392C66.5303 87.2466 66.9963 86.1618 67.0077 85.027C67.0182 83.8913 66.5741 82.7976 65.7725 81.9897ZM9.81047 56.0053C8.09377 54.6227 6.4711 54.5727 4.85491 55.8463C2.79293 57.4889 3.13822 60.0532 4.40831 61.8289C9.86883 69.6049 10.2733 73.6107 10.223 78.0428C10.1387 85.8938 11.947 91.5761 14.5812 95.7151C14.6696 95.7773 14.7506 95.8475 14.8252 95.925H14.8244C14.8754 95.9751 18.2326 99.453 22.5998 99.1681C25.7308 98.9582 28.7338 96.8799 31.5358 92.9918C32.0862 92.2646 33.1188 92.1072 33.862 92.6383C34.6045 93.1686 34.7868 94.1921 34.2713 94.9443C30.838 99.6782 26.9928 102.217 22.7854 102.485H22.0705H21.2705C24.9098 104.862 29.0856 106.3 33.4211 106.675C42.3644 107.334 51.123 103.908 57.2254 97.3658H57.2263L57.2935 97.2907L59.8175 94.5173C58.4761 94.2139 57.2481 93.5407 56.2747 92.5729L56.1491 92.4301C54.5969 90.8909 53.8293 88.7342 54.062 86.5654C52.1402 86.5718 50.2946 85.8172 48.9289 84.47L48.8624 84.403L48.7952 84.3449C47.0063 82.549 46.2801 79.9573 46.8758 77.4987C45.2483 77.2929 43.735 76.5536 42.576 75.3961L42.4836 75.3033C41.0773 73.9102 40.2879 72.0166 40.2879 70.0415C40.2879 68.0673 41.0773 66.1729 42.4836 64.7798L59.6149 47.7531C60.4141 46.9589 60.8631 45.8813 60.8631 44.7578C60.8631 43.6335 60.4141 42.5559 59.6149 41.7617C58.7995 40.9513 57.6891 40.5033 56.5365 40.5219C55.3856 40.5372 54.2897 41.0223 53.5068 41.8626C47.1271 48.641 31.6031 64.6862 24.9811 67.3925C24.2062 67.7178 23.3908 67.9414 22.5576 68.0544C23.4589 71.203 22.8899 74.5874 21.0095 77.2719C20.4948 78.0153 19.4841 78.2187 18.7198 77.7336C17.9555 77.2477 17.7147 76.2477 18.1743 75.4704L18.1751 75.4696C21.4569 70.3668 18.2335 66.8558 18.0908 66.7056C18.0543 66.6628 18.0203 66.6177 17.9895 66.5716C16.8394 65.3851 15.8586 64.0461 15.0781 62.5916C13.7375 60.0967 11.9527 57.865 9.81047 56.0053ZM6.84881 78.0177C6.88285 74.7165 6.92419 71.3136 1.64037 63.7725C-0.90955 60.1193 -0.447551 55.7793 2.75889 53.2578C5.59492 51.0204 9.01859 51.0866 11.93 53.4419C14.3754 55.5428 16.4171 58.0692 17.9538 60.899C20.1666 64.511 20.8571 65.4231 23.7175 64.2503C28.6236 62.2663 41.0611 50.1657 51.0654 39.5332C52.4604 38.0472 54.3967 37.1811 56.4392 37.1311C58.4818 37.0794 60.4578 37.8487 61.9257 39.2644C63.3936 40.6801 64.2276 42.6229 64.2422 44.6569C64.2576 46.6917 63.4503 48.6458 62.0035 50.0825L52.8737 59.2073C54.5953 59.5495 56.1442 60.4753 57.2546 61.8281C58.3659 63.1808 58.9705 64.875 58.9665 66.6233C58.9608 67.4232 58.8189 68.2158 58.545 68.9689C60.5373 69.1892 62.3326 70.2684 63.4584 71.9206C64.5834 73.5728 64.9254 75.6326 64.3929 77.5577C66.1866 77.9435 67.7817 78.9597 68.8832 80.4214C69.9848 81.8831 70.5205 83.6895 70.3916 85.5129C70.262 87.3362 69.4766 89.0522 68.1797 90.3444L65.445 93.3518L65.3526 93.4608L59.8418 99.5111C53.6008 106.352 44.719 110.204 35.4393 110.094L35.4401 110.094C34.7074 110.094 33.9755 110.069 33.2185 110.027C23.2984 109.432 6.59673 102.015 6.84881 78.0177Z" fill="#E8EDEA"/>
</g>
</g>
<g id="Group_11">
<g id="Group_12">
<path id="Vector_7" d="M27.3707 37.5806L31.0902 37.0439L32.7477 33.6926L34.4052 37.0439L38.1247 37.5806L35.4321 40.195L36.0717 43.882L32.7469 42.1386L29.4237 43.882L30.0632 40.195L27.3707 37.5806Z" fill="#E8EDEA"/>
</g>
</g>
<g id="Group_13">
<g id="Group_14">
<path id="Vector_8" d="M37.6368 19.4392L36.502 16.8918L33.7414 16.3809L35.8285 14.5124L35.467 11.739L37.8978 13.1386L40.4307 11.94L39.8422 14.6714L41.7688 16.6989L38.9839 16.9838L37.6368 19.4392Z" fill="#E8EDEA"/>
</g>
</g>
<g id="Group_15">
<g id="Group_16">
<path id="Vector_9" d="M12.0825 13.8506L14.1113 15.7692L16.8541 15.2001L15.6423 17.7128L17.047 20.135L14.262 19.7661L12.3856 21.8445L11.8726 19.0954L9.31456 17.9565L11.7802 16.6239L12.0825 13.8506Z" fill="#E8EDEA"/>
</g>
</g>
</g>
</g>
</g>
</g>
</g>
</g>
</g>
<defs>
<clipPath id="clip0_2175_288">
<rect width="77" height="113" fill="white"/>
</clipPath>
</defs>
</svg>
