<svg width="20" height="24" viewBox="0 0 20 24" fill="none" xmlns="http://www.w3.org/2000/svg">
<g id="Group">
<path id="Vector" d="M6.94385 11.0308H1.32949C0.636459 11.0308 0.074646 11.5926 0.074646 12.2856V22.7446C0.074646 23.4377 0.636459 23.9995 1.32949 23.9995H6.94385C7.63688 23.9995 8.19869 23.4377 8.19869 22.7446V12.2856C8.19869 11.5926 7.63688 11.0308 6.94385 11.0308Z" fill="#0A4020"/>
<path id="Vector_2" d="M19.2295 9.37844V22.7452C19.2295 23.4382 18.6676 24 17.9746 24H12.3598C11.6668 24 11.105 23.4382 11.105 22.7452V9.37844C11.105 8.68544 10.5431 8.12359 9.85012 8.12359H1.32943C0.636429 8.12405 0.074585 7.5622 0.074585 6.8692V1.25485C0.074585 0.561844 0.636429 0 1.32943 0H11.7889C12.4819 0 13.0437 0.561844 13.0437 1.25485V6.86966C13.0437 7.56266 13.6056 8.1245 14.2986 8.1245H17.9755C18.6685 8.1245 19.2304 8.68634 19.2304 9.37935L19.2295 9.37844Z" fill="#0A4020"/>
</g>
</svg>
