<svg width="67" height="71" viewBox="0 0 67 71" fill="none" xmlns="http://www.w3.org/2000/svg">
<g id="Group">
<g id="Group_2" opacity="0.5">
<path id="Vector" d="M84.4902 92.2122L41.0983 103.426C37.4729 104.363 33.2869 101.993 31.7513 98.1352L5.37129 31.8791C3.83568 28.0212 5.52831 24.1328 9.15618 23.1962L52.5458 11.9823C56.1712 11.0459 60.3572 13.4153 61.8951 17.2733L88.2727 83.5298C89.8107 87.3875 88.1156 91.2758 84.4902 92.2122Z" fill="#F1664E"/>
<path id="Vector_2" d="M27.2585 22.9374L11.8431 26.5194C10.5309 26.8242 9.85369 28.1603 10.2994 29.5654L31.3415 95.9129C31.8109 97.3935 33.3463 98.3933 34.7508 98.133L86.3488 88.5714C87.8123 88.3002 88.5305 86.7774 87.9088 85.2635L60.5737 18.7002C60.007 17.3202 58.5275 16.4554 57.2026 16.7301L27.2585 22.9374Z" fill="#D8C9BF"/>
<path id="Vector_3" d="M26.1119 22.5843L11.2416 27.5315C9.97578 27.9525 9.42245 29.3618 9.97988 30.7445L36.3104 96.0352C36.8979 97.4924 38.4939 98.3714 39.8541 97.9874L89.8335 83.8843C91.2512 83.4844 91.829 81.8826 91.0888 80.4049L58.5458 15.4367C57.8709 14.0896 56.3416 13.3423 55.0607 13.7341L26.1119 22.5843Z" fill="#EEEAE7"/>
<path id="Vector_4" d="M25.9426 25.9506L11.6573 30.5382C10.4414 30.9287 9.89804 32.2238 10.4188 33.4908L35.011 93.3242C35.5597 94.6595 37.0795 95.4611 38.3858 95.1046L86.375 82.0021C87.736 81.6303 88.3046 80.1585 87.6099 78.805L57.0661 19.2873C56.433 18.0533 54.9755 17.3724 53.7455 17.7357L25.9426 25.9506Z" fill="#D8C9BF"/>
<path id="Vector_5" d="M23.1586 22.6846L9.66313 28.4425C8.51451 28.9325 8.09799 30.3259 8.71403 31.619L37.7993 92.6847C38.4484 94.0474 39.9956 94.7864 41.2349 94.3258L86.7698 77.4027C88.0615 76.9227 88.4871 75.3425 87.6946 73.9703L52.8488 13.6312C52.1263 12.3803 50.6501 11.7636 49.4856 12.2263L23.1586 22.6846Z" fill="white"/>
<path id="Vector_6" d="M52.2119 20.8967L68.1086 57.5192L26.2549 69.0504L20.9779 57.9937L52.2119 20.8967Z" fill="#EEEAE7"/>
<path id="Vector_7" d="M16.7065 24.1419C16.0529 24.2469 15.6691 24.854 15.8232 25.5431C16.5606 28.8434 18.4671 38.2486 18.1441 45.9522C17.9085 51.5675 17.2585 55.0865 16.7653 57.0277C16.5368 57.9274 17.3698 58.9147 18.3226 58.8771L57.5241 57.332C58.1529 57.3071 58.601 56.8268 58.5875 56.1886C58.5349 53.7389 58.2829 47.4005 57.0805 39.1973C55.848 30.7899 52.9535 22.7518 51.8071 19.7824C51.544 19.1005 50.8277 18.657 50.1656 18.7636L16.7065 24.1419Z" fill="#BFC663"/>
<g id="Group_3">
<path id="Vector_8" d="M28.7804 69.3822C33.5262 67.9982 38.2597 66.5842 42.9809 65.1389C47.7021 63.6937 52.4103 62.2175 57.1061 60.7107C59.7548 59.8605 62.3995 59.0007 65.0405 58.1314C65.5071 57.9779 65.0912 57.131 64.6251 57.2845C59.9439 58.8257 55.2499 60.3367 50.5429 61.8167C45.8361 63.2967 41.1167 64.7461 36.3848 66.1645C33.7156 66.9646 31.0422 67.755 28.3651 68.5356C27.8928 68.6731 28.3096 69.5193 28.7804 69.3822Z" fill="#D8C9BF"/>
<path id="Vector_9" d="M31.5407 75.9972C38.751 73.8252 45.9221 71.5564 53.0512 69.1898C55.0829 68.5154 57.1114 67.8327 59.1364 67.1428C59.6001 66.9848 59.1855 66.1444 58.7219 66.3025C51.6155 68.724 44.4675 71.0498 37.2788 73.2771C35.2313 73.9115 33.1803 74.538 31.1261 75.1566C30.6562 75.2985 31.072 76.1384 31.5407 75.9972Z" fill="#D8C9BF"/>
<path id="Vector_10" d="M60.8229 73.7138C65.1464 72.4676 69.4414 71.1508 73.7066 69.7637C74.1722 69.6123 73.7578 68.7778 73.2927 68.9288C69.0274 70.3159 64.7324 71.6327 60.4089 72.8789C59.9378 73.0148 60.3535 73.8493 60.8229 73.7138Z" fill="#D8C9BF"/>
</g>
<g id="Group_4">
<g id="Group_5">
<path id="Vector_11" d="M18.6523 56.0395C24.2058 55.5049 29.7591 54.9704 35.3127 54.4358C35.8246 54.3864 35.6177 53.3851 35.1053 53.4346C29.5517 53.9692 23.9984 54.5037 18.4448 55.0383C17.9329 55.0877 18.1398 56.089 18.6523 56.0395Z" fill="#8AAA4C"/>
<path id="Vector_12" d="M37.2899 53.9096C42.176 53.4691 47.0261 52.8596 51.8341 52.0826C52.3352 52.0015 52.1325 51.0349 51.6283 51.1166C46.8204 51.8939 41.9702 52.5031 37.0841 52.9436C36.5729 52.9898 36.7781 53.9558 37.2899 53.9096Z" fill="#8AAA4C"/>
<path id="Vector_13" d="M25.0596 51.6746C29.1458 51.6525 33.2094 51.4915 37.2458 51.1921C37.7573 51.1541 37.5534 50.2202 37.0416 50.2582C33.0055 50.5576 28.9416 50.7183 24.8554 50.7407C24.3375 50.7433 24.5441 51.6773 25.0596 51.6746Z" fill="#8AAA4C"/>
</g>
</g>
<path id="Vector_14" d="M20.495 26.5801C20.495 26.5801 35.6427 50.5856 37.5404 50.8121C39.4379 51.0385 58.3757 46.0609 58.3757 46.0609C58.3757 46.0609 57.8793 38.949 56.1151 33.4631C54.3509 27.9771 51.7257 26.5227 51.7257 26.5227L20.495 26.5801Z" fill="#8AAA4D"/>
<path id="Vector_15" d="M24.1785 23.6123L20.2693 25.6316C19.6033 25.9757 19.4239 26.8433 19.8657 27.585L31.7057 47.465C32.1621 48.2312 33.1037 48.5677 33.7904 48.2105L58.661 35.264C59.4288 34.8645 59.5244 33.7916 58.8594 33.0356L45.1774 17.4751C44.7213 16.9564 44.0289 16.7388 43.4596 16.9358L24.3403 23.5435C24.2844 23.5624 24.2304 23.5854 24.1785 23.6123Z" fill="#4692C6"/>
<g id="Group_6">
<path id="Vector_16" d="M27.6049 21.3507L24.8473 13.0762C24.7818 12.8802 24.6033 12.7345 24.4127 12.7223C22.7399 12.6157 21.6611 11.7502 21.4535 10.3477C21.2453 8.9442 22.8113 7.96071 23.7633 7.49943C25.575 6.62123 28.1006 6.1735 29.2137 7.07388C29.7501 7.50778 30.0882 8.04529 30.1919 8.62826C30.3956 9.77577 29.6536 10.7957 29.1934 11.3012C29.0871 11.4182 29.0809 11.6086 29.1777 11.7755L33.7943 19.7118L33.0337 20.0773L28.4174 12.141C28.0987 11.5931 28.1201 10.9658 28.4715 10.5795C29.0928 9.89675 29.3915 9.1814 29.2914 8.61659C29.2363 8.3064 29.0576 8.03282 28.7457 7.78049C28.1849 7.32653 26.1103 7.48808 24.2768 8.37682C23.0208 8.98569 22.2682 9.77536 22.359 10.3887C22.4839 11.2333 23.1333 11.699 24.2884 11.7727C24.9102 11.8122 25.4942 12.2892 25.7087 12.9323L28.4664 21.2068L27.6049 21.3507Z" fill="#908BAF"/>
<path id="Vector_17" d="M23.4695 27.1583L20.7272 21.4074C20.3587 20.635 20.6377 19.8229 21.3412 19.6211L37.3285 15.0332C38.0491 14.8265 38.9137 15.345 39.2057 16.1595L41.1218 21.5043C41.3773 22.217 41.1013 22.9111 40.4811 23.1153L25.32 28.1092C24.6517 28.3295 23.8254 27.9049 23.4695 27.1583Z" fill="#46435B"/>
</g>
<path id="Vector_18" d="M23.9239 31.0212L29.785 39.5104C30.1247 40.0025 30.7478 40.205 31.2103 39.9733L42.5811 34.2794C43.102 34.0186 43.2072 33.3193 42.8075 32.7759L37.6037 25.7008C37.2853 25.268 36.7417 25.0711 36.2996 25.2285L24.2716 29.5084C23.6886 29.7154 23.5224 30.4395 23.9239 31.0212Z" fill="white"/>
</g>
</g>
</svg>
