<svg width="77" height="16" viewBox="0 0 77 16" fill="none" xmlns="http://www.w3.org/2000/svg">
<g id="Intense">
<path id="Vector" d="M71.3786 15.7545C67.6807 15.7545 65.0704 13.2748 65.0704 9.64209V9.59859C65.0704 6.18344 67.5284 3.44263 71.0088 3.44263C75.0548 3.44263 76.9255 6.42272 76.9255 9.88137C76.9255 10.1424 76.9255 10.4469 76.9037 10.7297H69.0293C69.3556 12.0349 70.2692 12.6657 71.5744 12.6657C72.5967 12.6657 73.3363 12.3177 74.1847 11.4693L76.4687 13.3618C75.3376 14.8192 73.7279 15.7545 71.3786 15.7545ZM68.9641 8.61973H73.0753C72.923 7.31457 72.1399 6.48798 71.0088 6.48798C69.8994 6.48798 69.2034 7.31457 68.9641 8.61973Z" fill="#0A4020"/>
<path id="Vector_2" d="M59.4654 15.7328C57.4641 15.7328 55.5499 15.1672 53.9185 13.9708L55.4629 11.491C56.8333 12.3829 58.269 12.8397 59.4871 12.8397C60.2049 12.8397 60.553 12.6222 60.553 12.2089V12.1654C60.553 11.6651 59.8787 11.491 58.6388 11.143C56.3112 10.5557 54.4623 9.75083 54.4623 7.40156V7.35806C54.4623 4.85652 56.4853 3.46436 59.1826 3.46436C60.9228 3.46436 62.663 3.96466 64.0334 4.83476L62.6195 7.44507C61.4013 6.74899 60.0744 6.33569 59.1391 6.33569C58.5082 6.33569 58.182 6.57497 58.182 6.92301V6.96651C58.182 7.42331 58.878 7.64084 60.0962 8.01063C62.4237 8.64146 64.2727 9.46805 64.2727 11.7521V11.7956C64.2727 14.3841 62.3367 15.7328 59.4654 15.7328Z" fill="#0A4020"/>
<path id="Vector_3" d="M41.4371 15.4718V3.70366H45.5701V5.35685C46.3314 4.37798 47.419 3.44263 49.094 3.44263C51.6173 3.44263 53.0964 5.07407 53.0964 7.77138V15.4718H48.9852V9.09828C48.9852 7.79313 48.3326 7.09705 47.3103 7.09705C46.2879 7.09705 45.5701 7.79313 45.5701 9.09828V15.4718H41.4371Z" fill="#0A4020"/>
<path id="Vector_4" d="M34.5319 15.7545C30.8339 15.7545 28.2236 13.2748 28.2236 9.64209V9.59859C28.2236 6.18344 30.6817 3.44263 34.1621 3.44263C38.208 3.44263 40.0788 6.42272 40.0788 9.88137C40.0788 10.1424 40.0788 10.4469 40.057 10.7297H32.1826C32.5089 12.0349 33.4225 12.6657 34.7276 12.6657C35.75 12.6657 36.4896 12.3177 37.3379 11.4693L39.622 13.3618C38.4908 14.8192 36.8811 15.7545 34.5319 15.7545ZM32.1173 8.61973H36.2286C36.0763 7.31457 35.2932 6.48798 34.1621 6.48798C33.0527 6.48798 32.3566 7.31457 32.1173 8.61973Z" fill="#0A4020"/>
<path id="Vector_5" d="M24.7429 15.7111C22.2413 15.7111 20.8057 14.6235 20.8057 11.8174V7.01011H19.4135V3.70373H20.8057V0.723633H24.9169V3.70373H27.6577V7.01011H24.9169V11.0126C24.9169 11.8609 25.2867 12.1872 26.048 12.1872C26.5918 12.1872 27.1139 12.0349 27.6142 11.7957V15.015C26.8529 15.4283 25.8958 15.7111 24.7429 15.7111Z" fill="#0A4020"/>
<path id="Vector_6" d="M6.7146 15.4718V3.70366H10.8476V5.35685C11.6089 4.37798 12.6965 3.44263 14.3715 3.44263C16.8948 3.44263 18.3739 5.07407 18.3739 7.77138V15.4718H14.2627V9.09828C14.2627 7.79313 13.6101 7.09705 12.5878 7.09705C11.5654 7.09705 10.8476 7.79313 10.8476 9.09828V15.4718H6.7146Z" fill="#0A4020"/>
<path id="Vector_7" d="M0.381409 15.4719V0.245117H4.6014V15.4719H0.381409Z" fill="#0A4020"/>
</g>
</svg>
