<svg width="119" height="25" viewBox="0 0 119 25" fill="none" xmlns="http://www.w3.org/2000/svg">
<g id="Intense">
<path id="Vector" d="M109.552 24.4552C103.851 24.4552 99.8268 20.6322 99.8268 15.0319V14.9648C99.8268 9.69979 103.616 5.47437 108.982 5.47437C115.219 5.47437 118.103 10.0687 118.103 15.4008C118.103 15.8032 118.103 16.2727 118.07 16.7086H105.93C106.433 18.7207 107.842 19.6933 109.854 19.6933C111.43 19.6933 112.57 19.1567 113.878 17.8488L117.399 20.7664C115.655 23.0132 113.174 24.4552 109.552 24.4552ZM105.83 13.4557H112.168C111.933 11.4436 110.726 10.1693 108.982 10.1693C107.272 10.1693 106.198 11.4436 105.83 13.4557Z" fill="#F0FDF4"/>
<path id="Vector_2" d="M91.1856 24.4214C88.1003 24.4214 85.1492 23.5495 82.6341 21.705L85.0151 17.882C87.1278 19.257 89.3411 19.9612 91.2191 19.9612C92.3257 19.9612 92.8623 19.6259 92.8623 18.9887V18.9216C92.8623 18.1503 91.8227 17.882 89.9112 17.3455C86.323 16.44 83.4725 15.1992 83.4725 11.5774V11.5104C83.4725 7.65382 86.5912 5.50757 90.7496 5.50757C93.4324 5.50757 96.1152 6.27888 98.2279 7.62028L96.0481 11.6445C94.1702 10.5714 92.1245 9.93421 90.6825 9.93421C89.71 9.93421 89.207 10.3031 89.207 10.8397V10.9067C89.207 11.611 90.2801 11.9463 92.1581 12.5164C95.7463 13.4889 98.5968 14.7633 98.5968 18.2845V18.3515C98.5968 22.3422 95.6122 24.4214 91.1856 24.4214Z" fill="#F0FDF4"/>
<path id="Vector_3" d="M63.3921 24.0193V5.87679H69.7638V8.42546C70.9375 6.91637 72.6143 5.47437 75.1965 5.47437C79.0865 5.47437 81.3669 7.9895 81.3669 12.1479V24.0193H75.0288V14.1935C75.0288 12.1814 74.0227 11.1083 72.4466 11.1083C70.8704 11.1083 69.7638 12.1814 69.7638 14.1935V24.0193H63.3921Z" fill="#F0FDF4"/>
<path id="Vector_4" d="M52.7464 24.4552C47.0455 24.4552 43.0212 20.6322 43.0212 15.0319V14.9648C43.0212 9.69979 46.8107 5.47437 52.1763 5.47437C58.4139 5.47437 61.2979 10.0687 61.2979 15.4008C61.2979 15.8032 61.2979 16.2727 61.2644 16.7086H49.1246C49.6277 18.7207 51.0361 19.6933 53.0482 19.6933C54.6244 19.6933 55.7646 19.1567 57.0725 17.8488L60.5937 20.7664C58.8498 23.0132 56.3682 24.4552 52.7464 24.4552ZM49.024 13.4557H55.3622C55.1274 11.4436 53.9202 10.1693 52.1763 10.1693C50.466 10.1693 49.3929 11.4436 49.024 13.4557Z" fill="#F0FDF4"/>
<path id="Vector_5" d="M37.6552 24.3879C33.7987 24.3879 31.5853 22.7112 31.5853 18.3852V10.9739H29.4391V5.87654H31.5853V1.28223H37.9235V5.87654H42.1489V10.9739H37.9235V17.1444C37.9235 18.4522 38.4936 18.9553 39.6673 18.9553C40.5057 18.9553 41.3105 18.7205 42.0818 18.3516V23.3148C40.9081 23.952 39.4326 24.3879 37.6552 24.3879Z" fill="#F0FDF4"/>
<path id="Vector_6" d="M9.86169 24.0193V5.87679H16.2334V8.42546C17.4071 6.91637 19.0839 5.47437 21.6661 5.47437C25.5561 5.47437 27.8365 7.9895 27.8365 12.1479V24.0193H21.4984V14.1935C21.4984 12.1814 20.4923 11.1083 18.9162 11.1083C17.34 11.1083 16.2334 12.1814 16.2334 14.1935V24.0193H9.86169Z" fill="#F0FDF4"/>
<path id="Vector_7" d="M0.0979004 24.019V0.544434H6.60372V24.019H0.0979004Z" fill="#F0FDF4"/>
</g>
</svg>
