<svg width="65" height="78" viewBox="0 0 65 78" fill="none" xmlns="http://www.w3.org/2000/svg">
<g id="Object" opacity="0.5">
<g id="Group">
<path id="Vector" d="M22.6421 71.4995L-81.1263 44.5146C-83.2758 43.9557 -84.5113 42.2456 -84.0873 40.4078L-69.5598 -22.7329C-68.9872 -25.2235 -65.6925 -26.8575 -62.7791 -26.0999L34.2323 -0.872167C36.2327 -0.351943 37.4558 1.17292 37.2537 2.88994L29.4819 67.791C29.1663 70.4322 25.7226 72.3006 22.6421 71.4995Z" fill="#D8C9BF"/>
<path id="Vector_2" d="M29.3131 67.4279L36.5726 6.78246C36.7613 5.17804 35.6187 3.75306 33.7506 3.26704L32.5365 2.95117C34.4049 3.43729 35.5472 4.86217 35.3585 6.4666L28.099 67.1121C27.804 69.5803 24.5879 71.3263 21.7107 70.5777L22.9248 70.8936C25.8017 71.6421 29.0181 69.8962 29.3131 67.4279Z" fill="#B6A191"/>
<path id="Vector_3" d="M25.9901 66.4445L33.2496 5.79907C33.4383 4.19464 32.2957 2.76966 30.4276 2.28364L29.2135 1.96777C31.082 2.45389 32.2243 3.87877 32.0355 5.4832L24.776 66.1287C24.481 68.5969 21.2649 70.3429 18.3877 69.5943L19.6018 69.9102C22.4787 70.6587 25.6951 68.9128 25.9901 66.4445Z" fill="#B6A191"/>
<path id="Vector_4" d="M13.6793 68.827L-81.1417 44.2333C-83.2868 43.6769 -84.52 41.9739 -84.0973 40.1435L-81.3516 28.2234L-69.6146 -22.746C-69.0438 -25.2266 -65.7565 -26.8546 -62.8492 -26.1006L25.2252 -3.25674C27.2249 -2.73807 28.4457 -1.21954 28.241 0.489728L21.7228 54.9578L20.5034 65.1322C20.189 67.7628 16.7497 69.6234 13.6793 68.827Z" fill="#46435B"/>
<path id="Vector_5" d="M17.1195 68.4284L-80.1361 41.404C-82.3363 40.7926 -83.5928 38.9469 -83.1473 36.9715L-80.2538 24.1074L25.4667 53.484L24.1519 64.4696C23.8132 67.31 20.2687 69.3035 17.1195 68.4284Z" fill="#645D7F"/>
<path id="Vector_6" d="M-123.02 27.256L-70.4119 -25.9825C-69.0191 -27.392 -66.7058 -27.9979 -64.7041 -27.4774L32.3064 -2.24996C35.2201 -1.49225 36.2647 1.27299 34.4564 3.44183L-11.3928 58.438C-12.7273 60.0386 -15.2135 60.7815 -17.3638 60.2224L-121.133 33.2373C-124.212 32.4369 -125.162 29.4246 -123.02 27.256Z" fill="#EEEAE7"/>
<path id="Vector_7" d="M21.0056 6.12379C20.8119 5.5713 20.3091 5.15538 19.6308 4.97826L12.4243 3.09652L10.9144 2.70226L0.629315 0.0166529L-0.880584 -0.377607L-11.1657 -3.06322L-12.6756 -3.45748L-22.9641 -6.14398L-24.474 -6.53824L-34.7591 -9.22385L-36.269 -9.6181L-46.5537 -12.3036L-48.0636 -12.6979L-58.3487 -15.3835L-59.8624 -15.7787L-67.9081 -17.8796C-68.871 -18.131 -70.0053 -17.8269 -70.6649 -17.1413L-75.1386 -12.4943L-76.183 -11.4108L-82.8595 -4.47007L-83.9038 -3.38658L-90.5851 3.5561L-91.6295 4.63958L-98.3108 11.5823L-99.3552 12.6658L-106.035 19.6056L-107.076 20.69L-112.121 25.9307C-112.598 26.4299 -112.77 27.0428 -112.585 27.6102C-112.401 28.1806 -111.896 28.6103 -111.196 28.7932L-102.826 30.9789L-101.312 31.3741L-91.0305 34.0587L-89.5206 34.453L-79.2359 37.1385L-77.7222 37.5337L-67.4375 40.2193L-65.9276 40.6135L-55.6429 43.299L-54.1292 43.6943L-43.8479 46.3789L-42.338 46.7731L-32.0494 49.4597L-30.5396 49.8539L-21.1775 52.2985C-20.1744 52.5604 -19.0138 52.2293 -18.3582 51.4951L-12.8338 45.2978L-11.8551 44.1972L-5.5762 37.1526L-4.5937 36.053L1.68666 29.0056L2.66916 27.906L8.94951 20.8586L9.92822 19.758L16.2071 12.7134L17.1897 11.6137L20.611 7.77338C21.0548 7.27588 21.2009 6.67316 21.0056 6.12379ZM9.9099 3.79614L5.52196 8.56748L-4.75936 5.88286L-0.374827 1.11063L9.9099 3.79614ZM-36.8006 8.91319L-26.5121 11.5997L-32.9491 18.6062L-43.2376 15.9197L-36.8006 8.91319ZM-44.7475 15.5254L-55.0326 12.8398L-48.5956 5.83332L-38.3109 8.51883L-44.7475 15.5254ZM-56.5425 12.4455L-66.8272 9.76003L-60.3902 2.75355L-50.1051 5.43916L-56.5425 12.4455ZM-57.5504 13.5385L-63.9875 20.545L-74.2722 17.8595L-67.8314 10.854L-57.5504 13.5385ZM-56.0371 13.9337L-45.752 16.6193L-52.1891 23.6258L-62.4776 20.9393L-56.0371 13.9337ZM-44.2421 17.0136L-33.957 19.6992L-40.394 26.7056L-50.6792 24.02L-44.2421 17.0136ZM-32.4437 20.0943L-22.1624 22.7789L-28.5994 29.7854L-38.8845 27.0998L-32.4437 20.0943ZM-31.4392 19.0004L-25.0022 11.994L-14.7171 14.6796L-21.1541 21.686L-31.4392 19.0004ZM-23.9979 10.8997L-17.5623 3.89598L-7.27717 6.58159L-13.7128 13.5853L-23.9979 10.8997ZM-25.5078 10.5054L-35.7929 7.81979L-29.3573 0.816111L-19.0722 3.50172L-25.5078 10.5054ZM-37.3062 7.42464L-47.5913 4.73903L-41.1557 -2.26465L-30.8706 0.420962L-37.3062 7.42464ZM-49.1012 4.34477L-59.3863 1.65916L-52.9507 -5.34452L-42.666 -2.65901L-49.1012 4.34477ZM-60.8958 1.265L-71.1809 -1.42061L-64.7453 -8.42429L-54.4602 -5.73868L-60.8958 1.265ZM-61.9001 2.35929L-68.3371 9.36578L-78.6219 6.68026L-72.1848 -0.326217L-61.9001 2.35929ZM-69.3454 10.4587L-75.7825 17.4652L-86.0676 14.7795L-79.6268 7.77405L-69.3454 10.4587ZM-76.7868 18.5594L-83.2224 25.5631L-93.5075 22.8775L-87.0719 15.8738L-76.7868 18.5594ZM-75.2769 18.9537L-64.9921 21.6392L-71.4277 28.6429L-81.7128 25.9573L-75.2769 18.9537ZM-63.4822 22.0335L-53.1937 24.72L-59.6293 31.7236L-69.9178 29.0371L-63.4822 22.0335ZM-51.6834 25.1143L-41.3983 27.7999L-47.8339 34.8036L-58.1187 32.1181L-51.6834 25.1143ZM-39.8888 28.1941L-29.6037 30.8797L-36.0393 37.8834L-46.324 35.1979L-39.8888 28.1941ZM-28.0938 31.274L-17.8091 33.9595L-24.2447 40.9632L-34.5298 38.2775L-28.0938 31.274ZM-27.0897 30.18L-20.6489 23.1745L-10.3641 25.86L-16.8012 32.8665L-27.0897 30.18ZM-19.6442 22.0803L-13.2072 15.0738L-2.92206 17.7594L-9.35908 24.7659L-19.6442 22.0803ZM-12.2029 13.9795L-5.76728 6.97585L4.51745 9.66136L-1.91815 16.665L-12.2029 13.9795ZM-1.88471 0.716377L-6.27266 5.48771L-16.554 2.80309L-12.1698 -1.96924L-1.88471 0.716377ZM-13.6835 -2.36448L-18.0677 2.40784L-28.3528 -0.277773L-23.9686 -5.05009L-13.6835 -2.36448ZM-25.4781 -5.44425L-29.8627 -0.672031L-40.1474 -3.35754L-35.7632 -8.12986L-25.4781 -5.44425ZM-37.2766 -8.52501L-41.6611 -3.75279L-51.9424 -6.43741L-47.5579 -11.2096L-37.2766 -8.52501ZM-49.0681 -11.604L-53.4561 -6.83266L-63.7374 -9.51728L-59.3529 -14.2895L-49.0681 -11.604ZM-69.442 -16.4354C-69.2213 -16.666 -68.8392 -16.7662 -68.5182 -16.6824L-60.8667 -14.6844L-65.2509 -9.91212L-73.6175 -12.0968L-69.442 -16.4354ZM-74.6617 -11.0136L-66.259 -8.81954L-72.6912 -1.81497L-81.3386 -4.07294L-74.6617 -11.0136ZM-82.3827 -2.98904L-73.6989 -0.721565L-80.1359 6.28492L-89.064 3.95364L-82.3827 -2.98904ZM-90.1084 5.03713L-81.1401 7.3789L-87.5771 14.3854L-96.7901 11.9797L-90.1084 5.03713ZM-97.8308 13.0645L-88.5818 15.4796L-95.0174 22.4832L-104.511 20.0043L-97.8308 13.0645ZM-110.586 27.597C-110.819 27.5361 -110.989 27.3903 -111.05 27.2012C-111.112 27.0084 -111.055 26.8065 -110.895 26.6381L-105.552 21.0886L-96.0257 23.5761L-101.822 29.8854L-110.586 27.597ZM-100.308 30.2807L-94.5116 23.9715L-84.2265 26.6571L-90.0229 32.9664L-100.308 30.2807ZM-88.5134 33.3605L-82.717 27.0513L-72.4319 29.7369L-78.2321 36.0451L-88.5134 33.3605ZM-76.7184 36.4404L-70.922 30.1311L-60.6372 32.8166L-66.4337 39.1259L-76.7184 36.4404ZM-64.9234 39.5203L-59.1232 33.212L-48.8384 35.8975L-54.6387 42.2058L-64.9234 39.5203ZM-53.125 42.601L-47.3285 36.2918L-37.0434 38.9774L-42.8437 45.2856L-53.125 42.601ZM-41.33 45.6809L-35.5336 39.3716L-25.2484 42.0572L-31.0449 48.3665L-41.33 45.6809ZM-19.6238 50.8334C-19.8435 51.078 -20.2313 51.1901 -20.5671 51.1024L-29.5354 48.7607L-23.7351 42.4524L-14.34 44.9056L-19.6238 50.8334ZM-13.3579 43.8059L-22.731 41.3584L-16.2954 34.3547L-7.07935 36.7612L-13.3579 43.8059ZM-6.10028 35.6607L-15.2913 33.2607L-8.85425 26.2543L0.183501 28.6142L-6.10028 35.6607ZM1.16236 27.5132L-7.84958 25.1601L-1.40875 18.1546L7.44651 20.4668L1.16236 27.5132ZM8.42538 19.3659L-0.404461 17.0603L6.03113 10.0566L14.7039 12.3212L8.42538 19.3659ZM7.03564 8.96272L11.4202 4.1905L19.0209 6.17516C19.247 6.2342 19.416 6.37321 19.4781 6.55909C19.5456 6.74284 19.4968 6.94384 19.3491 7.11198L15.6868 11.2217L7.03564 8.96272Z" fill="#B6A191"/>
<g id="Group_2">
<path id="Vector_8" d="M14.9676 -10.1791C14.09 -11.048 12.6901 -11.5703 11.2893 -11.7899C8.44036 -12.2317 5.29776 -11.7598 2.96799 -10.1261C1.0904 -8.80503 -0.177606 -6.99409 -0.790206 -5.14037C-1.4976 -2.99855 -1.16813 -0.789959 1.02989 0.574239C1.71673 0.99982 2.95224 0.78914 3.47425 0.181877C4.04508 -0.481163 3.89912 -1.24185 3.16364 -1.69934C3.13231 -1.71728 3.10237 -1.73791 3.07104 -1.75585C3.04482 -1.77552 3.02962 -1.78623 3.01312 -1.79356C2.98389 -1.82382 2.95838 -1.85313 2.94356 -1.86375C2.88592 -1.91764 2.82645 -1.97538 2.77369 -2.0314C2.72767 -2.07584 2.70413 -2.10159 2.68872 -2.11845C2.62224 -2.2268 2.53097 -2.39712 2.52498 -2.4085C2.49673 -2.46459 2.47528 -2.52571 2.44587 -2.57872C2.43825 -2.60339 2.43064 -2.62806 2.42317 -2.65302C2.38664 -2.79595 2.3591 -2.93994 2.34002 -3.08479C2.33563 -3.14791 2.33008 -3.20795 2.32081 -3.26896C2.25581 -3.30849 2.34886 -3.70442 2.3601 -3.77332C2.38248 -3.95958 2.42056 -4.14518 2.46373 -4.33249C2.48261 -4.4089 2.50164 -4.4856 2.5254 -4.56413C2.52787 -4.57636 2.53011 -4.58899 2.53373 -4.60431C2.52929 -4.59564 2.52821 -4.5861 2.52376 -4.57743C2.48761 -4.66504 2.66639 -4.95068 2.70204 -5.03595C2.84166 -5.3646 3.00799 -5.68938 3.19083 -6.00683C3.2753 -6.14787 3.36197 -6.28497 3.45299 -6.42397L3.45743 -6.43265C3.46229 -6.43884 3.46775 -6.44454 3.47298 -6.45063C3.46812 -6.44444 3.4629 -6.43835 3.45841 -6.43206C3.66885 -6.63531 3.58278 -6.57767 3.50258 -6.487C3.52867 -6.52394 3.55482 -6.56594 3.58113 -6.60249C3.871 -6.98637 4.20095 -7.35377 4.57561 -7.69638C4.60447 -7.72142 4.63371 -7.74637 4.65922 -7.77228C4.69043 -7.79366 4.8341 -7.91598 4.86705 -7.93996C5.04494 -8.07306 5.22801 -8.20144 5.41934 -8.32123C5.53652 -8.39182 5.65589 -8.45845 5.77306 -8.52903C5.78458 -8.53587 5.8012 -8.54443 5.81798 -8.55329C5.84475 -8.566 5.87135 -8.57842 5.89812 -8.59113C6.10181 -8.68808 6.30865 -8.77472 6.52287 -8.85268C6.65803 -8.90235 6.79363 -8.94546 6.92908 -8.98828C6.94432 -8.99415 6.94906 -8.99597 6.9633 -8.99905C6.97329 -9.0029 6.97701 -9.00194 6.99408 -9.00395C7.27285 -9.04893 7.54516 -9.12166 7.82628 -9.16298C7.92776 -9.17903 8.03144 -9.19111 8.13527 -9.2035C8.16132 -9.20658 8.37773 -9.22537 8.43456 -9.23334C8.70944 -9.2468 8.98322 -9.25073 9.25491 -9.24232C9.51798 -9.23276 9.77334 -9.20894 10.034 -9.18714C10.0622 -9.18626 10.0887 -9.18278 10.108 -9.18084C10.1296 -9.17524 10.1561 -9.17176 10.1899 -9.16605C10.2883 -9.14394 10.389 -9.12732 10.4874 -9.10521C10.7585 -9.04784 11.022 -8.97651 11.2796 -8.89352C11.3138 -8.88127 11.3848 -8.85339 11.4354 -8.83351C11.5521 -8.78363 11.6722 -8.73318 11.7829 -8.67164C11.8308 -8.64638 11.8771 -8.61812 11.9234 -8.58986C11.9331 -8.57752 12.0807 -8.47763 12.1135 -8.4461C12.1711 -8.39221 12.2286 -8.33802 12.281 -8.2821C12.3121 -8.24797 12.4081 -8.10251 12.4118 -8.10154L12.4155 -8.10058C12.4865 -7.97787 12.5571 -7.862 12.6167 -7.73275C12.634 -7.69574 12.6854 -7.52591 12.6888 -7.52504C12.7073 -7.45825 12.7223 -7.39272 12.7393 -7.32294C12.7793 -7.13982 12.7975 -6.95286 12.8116 -6.76697C12.8087 -6.76128 12.8115 -6.51294 12.8097 -6.49376C12.8015 -6.35904 12.787 -6.21951 12.7703 -6.08393C12.7339 -5.8068 12.6672 -5.53411 12.6007 -5.26171C12.5895 -5.21585 12.5856 -5.18434 12.5771 -5.16044C12.5691 -5.13645 12.5606 -5.11255 12.5452 -5.07421C12.493 -4.94105 12.4448 -4.80722 12.3845 -4.67311C12.2713 -4.41248 12.1425 -4.15283 11.9993 -3.89695C11.9327 -3.77431 11.8571 -3.65061 11.7777 -3.52787C11.7568 -3.49435 11.6555 -3.34444 11.6294 -3.30919C11.4529 -3.07481 11.2633 -2.84718 11.0497 -2.62881C10.9624 -2.53729 10.8677 -2.44801 10.7785 -2.36035C10.7769 -2.35736 10.7732 -2.35833 10.7718 -2.35564L14.1138 -1.48972C15.5983 -3.17615 16.3415 -5.2372 16.2754 -7.19194C16.2392 -8.27341 15.8044 -9.35658 14.9676 -10.1791ZM3.13548 -1.70697C3.11469 -1.70593 3.0691 -1.74382 3.02724 -1.78075C3.05506 -1.76338 3.09056 -1.73792 3.13548 -1.70697Z" fill="#F1664E"/>
<path id="Vector_9" d="M33.0697 -2.22054C33.0311 -3.30198 32.5962 -4.38515 31.7631 -5.20666C30.8822 -6.07648 29.4857 -6.59787 28.0811 -6.8185C25.2359 -7.25931 22.0934 -6.78738 19.7636 -5.15366C17.886 -3.83264 16.618 -2.02171 16.0054 -0.167992C15.298 1.97382 15.6271 4.1823 17.8218 5.54563C18.5086 5.9712 19.7478 5.76149 20.2698 5.15423C20.8407 4.49119 20.6914 3.72964 19.9559 3.27215C19.9283 3.25518 19.898 3.23445 19.867 3.21661C19.8404 3.19684 19.8256 3.18623 19.8091 3.1789C19.7799 3.14863 19.751 3.11846 19.7395 3.10871C19.6782 3.05386 19.622 2.99698 19.5663 2.94019C19.5236 2.89662 19.5005 2.87097 19.4847 2.85401C19.4149 2.74479 19.3236 2.57447 19.3172 2.563C19.2927 2.50786 19.2712 2.44675 19.2418 2.39374C19.2342 2.36907 19.2266 2.3444 19.2188 2.31934C19.1826 2.17651 19.1551 2.03252 19.1356 1.88758C19.1255 1.79689 19.1206 1.71093 19.1137 1.62141C19.0926 1.36188 19.1103 1.69879 19.1127 1.70245C19.0477 1.66291 19.1445 1.26795 19.152 1.19808C19.1781 1.01278 19.2128 0.826325 19.2597 0.639978C19.2786 0.563571 19.2976 0.48687 19.3214 0.408342C19.3265 0.390032 19.3319 0.372113 19.3337 0.352934C19.3312 0.365167 19.3239 0.379521 19.3201 0.39514C19.284 0.307524 19.459 0.0209196 19.498 -0.0634814C19.638 -0.392031 19.8006 -0.71777 19.9872 -1.03425C20.0716 -1.1753 20.1546 -1.31336 20.246 -1.45227C20.2397 -1.44746 20.2382 -1.44446 20.2316 -1.43975C20.246 -1.45227 20.2586 -1.46865 20.2707 -1.48482C20.2788 -1.49253 20.2866 -1.50034 20.2909 -1.50871C20.3187 -1.54725 20.3458 -1.59204 20.3736 -1.63058C20.6668 -2.01359 20.9971 -2.3809 21.3714 -2.7236C21.3969 -2.74951 21.4258 -2.77455 21.455 -2.7995C21.4862 -2.82088 21.6299 -2.9432 21.6625 -2.96728C21.8404 -3.10038 22.0234 -3.22875 22.2148 -3.34854C22.3282 -3.42009 22.4513 -3.48576 22.5648 -3.55731C22.5763 -3.56415 22.5929 -3.57271 22.613 -3.58071C22.8439 -3.69027 23.0748 -3.79338 23.3183 -3.87999C23.4535 -3.92966 23.5891 -3.97277 23.7245 -4.01559C23.7398 -4.02146 23.7445 -4.02328 23.7584 -4.02646C23.7683 -4.03031 23.7721 -4.02934 23.7858 -4.03223C24.0646 -4.0772 24.3369 -4.14993 24.618 -4.19125C24.7228 -4.20643 24.8265 -4.21852 24.9303 -4.23091C24.9564 -4.23399 25.1691 -4.25374 25.2296 -4.26075C25.5008 -4.27518 25.7783 -4.27813 26.0462 -4.27069C26.3089 -4.26122 26.5684 -4.23634 26.8253 -4.21551C26.8569 -4.21376 26.88 -4.21115 26.9026 -4.20834C26.9242 -4.20274 26.9507 -4.19926 26.9842 -4.19365C27.0826 -4.17155 27.1833 -4.15492 27.2817 -4.13281C27.5487 -4.0765 27.8126 -4.00508 28.0705 -3.92199C28.1048 -3.90973 28.1791 -3.88099 28.2263 -3.86198C28.3463 -3.81123 28.4632 -3.76166 28.5735 -3.70021C28.6251 -3.67398 28.6714 -3.64573 28.7177 -3.61747C28.724 -3.606 28.8716 -3.5061 28.9078 -3.4737C28.9654 -3.41981 29.0192 -3.36658 29.0716 -3.31067C29.1064 -3.27557 29.1986 -3.13107 29.2024 -3.13011L29.2057 -3.12924C29.2804 -3.00556 29.351 -2.88971 29.4102 -2.76055C29.4242 -2.72441 29.479 -2.55372 29.479 -2.55372C29.4975 -2.48692 29.5162 -2.42043 29.5295 -2.35161C29.5695 -2.16849 29.5911 -1.98067 29.6055 -1.79468C29.6011 -1.786 29.6054 -1.54065 29.6036 -1.52147C29.5958 -1.38666 29.5809 -1.24722 29.5642 -1.11164C29.5278 -0.834508 29.4611 -0.561817 29.3946 -0.289425C29.3834 -0.243562 29.3758 -0.213016 29.3714 -0.188057C29.363 -0.164161 29.3512 -0.141137 29.3395 -0.101825C29.2873 0.0313341 29.2357 0.164291 29.1788 0.299273C29.0656 0.559898 28.9368 0.819544 28.7935 1.07543C28.7232 1.1971 28.6513 1.32177 28.572 1.44451C28.5511 1.47803 28.4461 1.62697 28.4237 1.66318C28.2468 1.89747 28.0572 2.1251 27.844 2.34357C27.7567 2.43508 27.6586 2.5235 27.569 2.61105C27.5675 2.61405 27.5642 2.61318 27.5628 2.61587L30.9081 3.48265C32.3926 1.79523 33.1355 -0.265909 33.0697 -2.22054ZM19.9311 3.26538C19.9066 3.26547 19.8647 3.22854 19.8228 3.19161C19.8466 3.20792 19.8824 3.23347 19.9311 3.26538Z" fill="#F1664E"/>
</g>
<g id="Group_3">
<path id="Vector_10" d="M-69.8945 -20.5896C-57.927 -17.0757 -45.9592 -13.5617 -33.9918 -10.0478C-22.0891 -6.55286 -10.1864 -3.05797 1.71581 0.436804C8.41491 2.40381 15.1144 4.37094 21.8135 6.33794C22.5667 6.55911 23.0786 5.49389 22.3238 5.27227C10.3564 1.75836 -1.61143 -1.75567 -13.5789 -5.26959C-25.4815 -8.76448 -37.3842 -12.2594 -49.2864 -15.7541C-55.9855 -17.7212 -62.685 -19.6883 -69.3841 -21.6553C-70.1373 -21.8765 -70.6489 -20.8111 -69.8945 -20.5896Z" fill="#D8C9BF"/>
</g>
</g>
</g>
</svg>
