<svg width="127" height="58" viewBox="0 0 127 58" fill="none" xmlns="http://www.w3.org/2000/svg">
<g id="Object" opacity="0.5">
<g id="Group">
<path id="Vector" d="M46.6436 14.5866C20.883 21.4891 5.79381 48.7075 12.9409 75.3809C20.088 102.054 46.7649 118.082 72.5255 111.179C98.2864 104.277 113.375 77.0579 106.228 50.3846C99.0813 23.7112 72.4042 7.68407 46.6436 14.5866ZM70.3635 103.111C48.9071 108.86 26.6879 95.5076 20.7355 73.2926C14.783 51.0777 27.3493 28.4048 48.8057 22.6556C70.2623 16.9063 92.4812 30.2585 98.4337 52.4734C104.386 74.6884 91.8199 97.3613 70.3635 103.111Z" fill="#645D7F"/>
<path id="Vector_2" d="M54.4385 12.4977C28.6779 19.4003 13.5887 46.6187 20.7358 73.292C27.8829 99.9653 54.5598 115.993 80.3204 109.09C106.081 102.188 121.17 74.969 114.023 48.2957C106.876 21.6224 80.1994 5.59513 54.4385 12.4977ZM78.1584 101.022C56.702 106.771 34.4829 93.4187 28.5304 71.2038C22.5779 48.9888 35.1442 26.3159 56.6006 20.5667C78.0573 14.8174 100.276 28.1696 106.229 50.3846C112.181 72.5995 99.6151 95.2723 78.1584 101.022Z" fill="#908BAF"/>
<path id="Vector_3" d="M56.0546 18.5323C33.5128 24.5723 20.3084 48.391 26.5624 71.7313C32.8164 95.0715 56.1611 109.097 78.7029 103.057C101.245 97.0168 114.449 73.1981 108.195 49.8579C101.941 26.5176 78.5964 12.4922 56.0546 18.5323ZM78.1577 101.022C56.7013 106.771 34.4821 93.4191 28.5296 71.2042C22.5772 48.9892 35.1435 26.3163 56.5998 20.5671C78.0565 14.8178 100.275 28.1701 106.228 50.385C112.18 72.5999 99.6144 95.2728 78.1577 101.022Z" fill="#645D7F"/>
<path id="Vector_4" d="M106.228 50.3849C106.593 51.7445 106.888 53.1062 107.116 54.4628C110.536 74.8614 98.8259 94.7469 79.4494 100.649C79.0227 100.784 78.5927 100.905 78.1581 101.022C78.075 101.044 77.9887 101.067 77.9044 101.086C76.6726 101.41 75.4396 101.668 74.2071 101.866C73.672 101.953 73.1366 102.027 72.601 102.088C54.3037 104.247 36.5182 93.1607 29.8 75.1793C29.3191 73.8905 28.8943 72.5634 28.5299 71.2038C28.425 70.8123 28.3272 70.4221 28.2323 70.0311C23.4799 50.112 33.4641 30.0741 51.2549 22.422C51.749 22.207 52.25 22.0035 52.7569 21.8115C53.9231 21.3669 55.1198 20.9735 56.3485 20.6376C56.4311 20.6123 56.5174 20.5892 56.6005 20.5669C57.0354 20.4504 57.4685 20.341 57.9051 20.2438C78.5733 15.4493 99.6262 28.149 105.9 49.2204C106.013 49.6065 106.123 49.9934 106.228 50.3849Z" fill="white"/>
<path id="Vector_5" d="M106.228 50.3849C106.593 51.7451 106.888 53.1064 107.117 54.462C107.948 59.4074 107.888 64.3206 107.041 69.0139C97.4291 57.6283 82.2789 51.9427 67.3299 55.4129C66.8931 55.5096 66.4593 55.6171 66.0222 55.7342C65.9407 55.756 65.8539 55.7793 65.7711 55.8073C64.5427 56.1423 63.3474 56.5353 62.1801 56.979C61.6734 57.173 61.1716 57.3744 60.6796 57.5906C48.1741 62.9696 39.5255 74.4675 37.1402 87.741C34.0607 84.0996 31.5523 79.8745 29.7995 75.1792C29.3204 73.8905 28.8951 72.5641 28.5307 71.204C28.4259 70.813 28.3273 70.4233 28.2341 70.0322C23.481 50.1106 33.4649 30.0755 51.2561 22.4218C51.7489 22.2083 52.25 22.0042 52.7574 21.8129C53.9239 21.3665 55.1193 20.9735 56.3477 20.6385C56.4311 20.6132 56.518 20.59 56.5994 20.5681C57.0365 20.451 57.4697 20.3408 57.9064 20.2441C78.5731 15.4485 99.6269 28.1478 105.899 49.2219C106.014 49.6072 106.124 49.994 106.228 50.3849Z" fill="#EEEAE7"/>
<path id="Vector_6" d="M82.3596 56.2646C79.7852 47.6188 71.1485 42.4082 62.6677 44.3766C62.4863 44.4153 62.3099 44.4594 62.131 44.5073C62.097 44.5164 62.0601 44.5263 62.027 44.5384C61.5252 44.676 61.0332 44.8378 60.5531 45.0192C60.346 45.0979 60.1409 45.1826 59.9392 45.2695C52.6379 48.409 48.5392 56.6319 50.491 64.8035C50.5307 64.9648 50.5707 65.1258 50.6136 65.2862C50.7632 65.8444 50.9358 66.3897 51.1336 66.9181C53.8902 74.2956 61.1902 78.8465 68.6981 77.9582C68.916 77.933 69.1363 77.9037 69.3549 77.8681C69.8614 77.7853 70.3684 77.6791 70.8717 77.5475C70.9065 77.5414 70.9434 77.5315 70.9773 77.5224C71.1562 77.4744 71.3311 77.4244 71.5075 77.3672C79.4574 74.9464 84.264 66.7881 82.8603 58.4167C82.7673 57.8599 82.6441 57.3014 82.4946 56.7435C82.4515 56.5836 82.4056 56.4242 82.3596 56.2646ZM81.7822 58.5871C83.0936 66.4048 78.6064 74.0282 71.1788 76.2893C71.0171 76.3394 70.8512 76.387 70.6848 76.4316L70.5892 76.4572C70.1165 76.5807 69.6435 76.6777 69.1717 76.7544C68.9664 76.7896 68.7594 76.8186 68.5538 76.8405C61.5418 77.6686 54.7263 73.4209 52.1518 66.5266C51.967 66.0343 51.8043 65.5259 51.6647 65.0049C51.6242 64.854 51.5877 64.7049 51.5511 64.5561C49.73 56.9213 53.5584 49.2433 60.3729 46.3102C60.5621 46.2266 60.7558 46.1482 60.9511 46.0758C61.3981 45.9066 61.8562 45.7539 62.3273 45.6244L62.4229 45.5988C62.5893 45.5543 62.7568 45.5126 62.9219 45.475C70.8428 43.6369 78.9117 48.5038 81.3169 56.5801C81.3595 56.7272 81.4022 56.8744 81.4427 57.0256C81.5829 57.5467 81.6962 58.0684 81.7822 58.5871Z" fill="#D8C9BF"/>
<path id="Vector_7" d="M106.229 50.385C112.182 72.5999 99.6153 95.2728 78.1589 101.022C77.2 101.279 76.2374 101.497 75.2779 101.678C94.9946 94.7758 106.209 73.1363 100.522 51.9142C94.8356 30.6921 74.3043 17.5587 53.778 21.4394C54.6994 21.1165 55.6421 20.824 56.601 20.5671C78.0577 14.8178 100.277 28.1701 106.229 50.385Z" fill="#D8C9BF"/>
<path id="Vector_8" d="M88.9218 73.7975L70.5527 63.1921C70.8287 62.1676 70.8522 61.0529 70.5549 59.9436C69.9144 57.5531 67.9905 55.8671 65.7691 55.4648L61.5599 39.7559C61.3269 38.8863 60.433 38.3704 59.5636 38.6034L57.9893 39.0252C57.1197 39.2582 56.6038 40.1518 56.8368 41.0214L61.046 56.7304C59.3232 58.1895 58.5002 60.6116 59.1407 63.0021C60.0152 66.2659 63.2794 68.2269 66.4314 67.3823C66.7721 67.291 67.094 67.1655 67.4023 67.0194L86.4771 78.0323C87.2568 78.4824 88.2537 78.2153 88.7039 77.4356L89.5187 76.024C89.9686 75.2443 89.7015 74.2477 88.9218 73.7975Z" fill="#46435B"/>
<g id="Group_2">
<path id="Vector_9" d="M67.9449 59.7567C68.8142 59.5238 69.3305 58.6301 69.0974 57.7605L64.0912 39.0771C63.8582 38.2075 62.9643 37.6917 62.095 37.9246L60.5207 38.3465C59.6511 38.5795 59.1351 39.4731 59.3681 40.3427L64.3743 59.0261C64.6073 59.8957 65.501 60.4116 66.3706 60.1786L67.9449 59.7567Z" fill="#645D7F"/>
<path id="Vector_10" d="M91.4534 73.1193L70.6533 61.1104C69.8736 60.6602 68.8767 60.9273 68.4265 61.707L67.6115 63.1187C67.1613 63.8984 67.4285 64.8953 68.2081 65.3452L89.0082 77.3541C89.7878 77.8043 90.7848 77.5372 91.2349 76.7575L92.0497 75.3459C92.5001 74.5661 92.2331 73.5694 91.4534 73.1193Z" fill="#645D7F"/>
</g>
<path id="Vector_11" d="M68.963 66.7041C72.1151 65.8595 73.9614 62.5291 73.0868 59.2653C72.2123 56.0016 68.9482 54.0405 65.7961 54.8851C62.6441 55.7296 60.7978 59.0601 61.6723 62.3238C62.5468 65.5876 65.811 67.5487 68.963 66.7041Z" fill="#908BAF"/>
<path id="Vector_12" d="M68.1086 63.5138C69.5593 63.1251 70.409 61.5923 70.0065 60.0902C69.604 58.5881 68.1017 57.6856 66.6511 58.0743C65.2004 58.463 64.3507 59.9958 64.7532 61.4979C65.1557 63 66.6579 63.9025 68.1086 63.5138Z" fill="#645D7F"/>
<g id="Group_3">
<g id="Group_4">
<g id="Group_5">
<path id="Vector_13" d="M56.3476 20.6381L58.0916 27.1468C58.4031 28.3091 57.8997 29.5017 56.9344 30.1171C56.7075 30.2573 56.4601 30.3699 56.1889 30.4426C54.7551 30.8267 53.2776 29.9734 52.8934 28.5397L51.2543 22.4225C51.7484 22.2075 52.2494 22.004 52.7563 21.812C53.9224 21.3671 55.1191 20.9737 56.3476 20.6381Z" fill="#46435B"/>
<path id="Vector_14" d="M57.9048 20.2438L59.643 26.7311C60.0272 28.1648 59.1772 29.6417 57.7435 30.0259C57.4723 30.0986 57.2025 30.1278 56.9353 30.1167C55.7892 30.0703 54.7595 29.2853 54.4481 28.123L52.7569 21.8114C53.923 21.3669 55.1197 20.9735 56.3485 20.6375C56.431 20.6122 56.5173 20.5891 56.6004 20.5668C57.0348 20.4504 57.4681 20.341 57.9048 20.2438Z" fill="#645D7F"/>
</g>
</g>
<g id="Group_6">
<g id="Group_7">
<path id="Vector_15" d="M106.228 50.385C106.593 51.7446 106.888 53.1064 107.116 54.463L98.4676 56.7804C97.0339 57.1645 95.5571 56.3142 95.1722 54.8775C94.788 53.4438 95.642 51.969 97.0755 51.5849L105.9 49.2204C106.013 49.6066 106.123 49.9935 106.228 50.385Z" fill="#46435B"/>
</g>
<g id="Group_8">
<g id="Group_9">
<path id="Vector_16" d="M106.228 50.3848C106.593 51.7444 106.888 53.1062 107.116 54.4628L100.752 56.168C99.3153 56.553 97.8413 55.7019 97.4563 54.2652C97.0722 52.8315 97.9232 51.3574 99.3599 50.9725L105.9 49.2202C106.013 49.6064 106.123 49.9933 106.228 50.3848Z" fill="#645D7F"/>
</g>
</g>
</g>
</g>
<g id="Group_10">
<path id="Vector_17" d="M52.8479 44.0354C49.0039 47.4005 46.6795 52.3566 46.3848 57.4425C46.3013 58.8855 46.3938 60.3322 46.6448 61.7554C46.7391 62.2896 47.553 62.0684 47.4593 61.5371C46.612 56.7374 47.8519 51.6692 50.6593 47.7057C51.4615 46.5729 52.4032 45.5425 53.4471 44.6288C53.8556 44.2714 53.2552 43.6789 52.8479 44.0354Z" fill="#B7A192"/>
<path id="Vector_18" d="M65.5165 23.2426C69.8581 23.6276 74.0798 25.2721 77.5305 27.937C77.9543 28.2643 78.5535 27.6693 78.1235 27.3376C74.4846 24.5272 70.1037 22.8055 65.5224 22.3992C64.9812 22.3513 64.9794 23.1951 65.5165 23.2426Z" fill="#B7A192"/>
<path id="Vector_19" d="M80.7343 29.8363C83.7617 32.1168 86.395 34.9117 88.5022 38.0609C88.8022 38.5095 89.5325 38.0866 89.2296 37.6338C87.0358 34.355 84.3062 31.4788 81.156 29.1058C80.7227 28.7799 80.3056 29.5135 80.7343 29.8363Z" fill="#B7A192"/>
</g>
</g>
</g>
</svg>
