<svg width="30" height="30" viewBox="0 0 30 30" fill="none" xmlns="http://www.w3.org/2000/svg">
<g id="user-01">
<path id="Icon" d="M24.4275 25.7585C24.4275 24.054 24.4275 23.2018 24.2171 22.5083C23.7434 20.9469 22.5216 19.725 20.9602 19.2513C20.2667 19.041 19.4144 19.041 17.7099 19.041H11.6031C9.89855 19.041 9.04629 19.041 8.3528 19.2513C6.7914 19.725 5.56952 20.9469 5.09587 22.5083C4.8855 23.2018 4.8855 24.054 4.8855 25.7585M20.1527 9.26998C20.1527 12.3054 17.6919 14.7662 14.6565 14.7662C11.621 14.7662 9.1603 12.3054 9.1603 9.26998C9.1603 6.23453 11.621 3.7738 14.6565 3.7738C17.6919 3.7738 20.1527 6.23453 20.1527 9.26998Z" stroke="#5E5E5E" stroke-width="2.44275" stroke-linecap="round" stroke-linejoin="round"/>
</g>
</svg>
