<svg width="19" height="19" viewBox="0 0 19 19" fill="none" xmlns="http://www.w3.org/2000/svg">
<g id="calendar-minus-01">
<path id="Icon" d="M7.28577 11.7249H11.709M16.1323 6.56439H2.86249M12.4463 2.14111V4.35275M6.54855 2.14111V4.35275M6.40111 16.8854H12.5937C13.8323 16.8854 14.4517 16.8854 14.9248 16.6443C15.3409 16.4323 15.6792 16.0939 15.8913 15.6778C16.1323 15.2047 16.1323 14.5854 16.1323 13.3468V7.15416C16.1323 5.91553 16.1323 5.29621 15.8913 4.82312C15.6792 4.40697 15.3409 4.06863 14.9248 3.85659C14.4517 3.61554 13.8323 3.61554 12.5937 3.61554H6.40111C5.16248 3.61554 4.54316 3.61554 4.07006 3.85659C3.65392 4.06863 3.31558 4.40697 3.10354 4.82312C2.86249 5.29621 2.86249 5.91553 2.86249 7.15416V13.3468C2.86249 14.5854 2.86249 15.2047 3.10354 15.6778C3.31558 16.0939 3.65392 16.4323 4.07006 16.6443C4.54316 16.8854 5.16248 16.8854 6.40111 16.8854Z" stroke="#5E5E5E" stroke-width="1.60847" stroke-linecap="round" stroke-linejoin="round"/>
</g>
</svg>
