<svg width="19" height="19" viewBox="0 0 19 19" fill="none" xmlns="http://www.w3.org/2000/svg">
<g id="globe-05">
<path id="Icon" d="M11.709 2.25644C11.0108 2.03716 10.2679 1.91895 9.49738 1.91895C5.42586 1.91895 2.12524 5.21956 2.12524 9.29108C2.12524 13.3626 5.42586 16.6632 9.49738 16.6632C13.5689 16.6632 16.8695 13.3626 16.8695 9.29108C16.8695 8.02652 16.5511 6.83632 15.9901 5.79628M13.1834 4.6835H13.1871M8.3916 16.5808L8.39168 14.9565C8.39168 14.8685 8.42315 14.7834 8.48041 14.7166L10.313 12.5786C10.4636 12.4029 10.4169 12.1335 10.216 12.0187L8.11033 10.8154C8.05312 10.7827 8.00572 10.7353 7.97307 10.6781L6.60047 8.27271C6.52903 8.14753 6.39118 8.07546 6.24762 8.08825L2.17256 8.4512M16.1323 4.8678C16.1323 6.4964 14.6579 7.81665 13.1834 9.29108C11.709 7.81665 10.2346 6.4964 10.2346 4.8678C10.2346 3.23919 11.5548 1.91895 13.1834 1.91895C14.812 1.91895 16.1323 3.23919 16.1323 4.8678ZM13.3677 4.6835C13.3677 4.78528 13.2852 4.8678 13.1834 4.8678C13.0817 4.8678 12.9991 4.78528 12.9991 4.6835C12.9991 4.58171 13.0817 4.49919 13.1834 4.49919C13.2852 4.49919 13.3677 4.58171 13.3677 4.6835Z" stroke="#5E5E5E" stroke-width="1.60847" stroke-linecap="round" stroke-linejoin="round"/>
</g>
</svg>
