<svg width="19" height="18" viewBox="0 0 19 18" fill="none" xmlns="http://www.w3.org/2000/svg">
<g id="home-04" clip-path="url(#clip0_2_2236)">
<g id="Icon">
<path d="M9.49741 11.8271C10.7189 11.8271 11.709 10.8369 11.709 9.61549C11.709 8.39404 10.7189 7.40385 9.49741 7.40385C8.27595 7.40385 7.28577 8.39404 7.28577 9.61549C7.28577 10.8369 8.27595 11.8271 9.49741 11.8271Z" stroke="#138232" stroke-width="1.60847" stroke-linecap="round" stroke-linejoin="round"/>
<path d="M2.86249 7.82043C2.86249 7.39701 2.86249 7.1853 2.91706 6.99033C2.9654 6.81762 3.04485 6.65518 3.1515 6.51099C3.27189 6.34822 3.439 6.21824 3.77323 5.95828L8.77324 2.06939C9.03224 1.86794 9.16174 1.76722 9.30474 1.7285C9.43091 1.69434 9.5639 1.69434 9.69008 1.7285C9.83307 1.76722 9.96258 1.86794 10.2216 2.06939L15.2216 5.95828C15.5558 6.21824 15.7229 6.34822 15.8433 6.51099C15.95 6.65518 16.0294 6.81762 16.0778 6.99033C16.1323 7.1853 16.1323 7.39701 16.1323 7.82043V13.1541C16.1323 13.9799 16.1323 14.3928 15.9716 14.7081C15.8303 14.9856 15.6047 15.2111 15.3273 15.3525C15.0119 15.5132 14.599 15.5132 13.7732 15.5132H5.22157C4.39581 15.5132 3.98294 15.5132 3.66754 15.3525C3.39011 15.2111 3.16455 14.9856 3.02319 14.7081C2.86249 14.3928 2.86249 13.9799 2.86249 13.1541V7.82043Z" stroke="#138232" stroke-width="1.60847" stroke-linecap="round" stroke-linejoin="round"/>
</g>
</g>
<defs>
<clipPath id="clip0_2_2236">
<rect width="17.6931" height="17.6931" fill="white" transform="translate(0.650818 0.0317383)"/>
</clipPath>
</defs>
</svg>
