<svg width="20" height="20" viewBox="0 0 20 20" fill="none" xmlns="http://www.w3.org/2000/svg">
<g id="laptop-01">
<path id="Icon" d="M2.88259 12.9738V5.89654C2.88259 4.99572 2.88259 4.54531 3.0579 4.20124C3.21211 3.89858 3.45817 3.65252 3.76082 3.49831C4.10489 3.323 4.55531 3.323 5.45613 3.323H14.7852C15.6861 3.323 16.1365 3.323 16.4805 3.49831C16.7832 3.65252 17.0293 3.89858 17.1835 4.20124C17.3588 4.54531 17.3588 4.99572 17.3588 5.89654V12.9738H13.0664C12.8697 12.9738 12.7713 12.9738 12.6788 12.996C12.5967 13.0157 12.5182 13.0482 12.4463 13.0923C12.3651 13.142 12.2956 13.2116 12.1565 13.3507L12.106 13.4011C11.9669 13.5402 11.8974 13.6098 11.8162 13.6595C11.7443 13.7036 11.6658 13.7361 11.5838 13.7558C11.4912 13.778 11.3929 13.778 11.1961 13.778H9.04521C8.84851 13.778 8.75015 13.778 8.6576 13.7558C8.57553 13.7361 8.49709 13.7036 8.42513 13.6595C8.34397 13.6098 8.27442 13.5402 8.13533 13.4011L8.08487 13.3507C7.94578 13.2116 7.87623 13.142 7.79507 13.0923C7.72311 13.0482 7.64466 13.0157 7.5626 12.996C7.47005 12.9738 7.37169 12.9738 7.17498 12.9738H2.88259ZM2.88259 12.9738C2.43842 12.9738 2.07835 13.3339 2.07835 13.778V14.0461C2.07835 14.5447 2.07835 14.794 2.13316 14.9986C2.28189 15.5536 2.71545 15.9872 3.27052 16.1359C3.47506 16.1907 3.72437 16.1907 4.22297 16.1907H16.0184C16.517 16.1907 16.7663 16.1907 16.9708 16.1359C17.5259 15.9872 17.9595 15.5536 18.1082 14.9986C18.163 14.794 18.163 14.5447 18.163 14.0461C18.163 13.7968 18.163 13.6721 18.1356 13.5699C18.0612 13.2923 17.8445 13.0756 17.5669 13.0012C17.4647 12.9738 17.34 12.9738 17.0907 12.9738H16.5545" stroke="white" stroke-width="1.60847" stroke-linecap="round" stroke-linejoin="round"/>
</g>
</svg>
