<svg width="20" height="20" viewBox="0 0 20 20" fill="none" xmlns="http://www.w3.org/2000/svg">
<g id="lightbulb-05" clip-path="url(#clip0_2_2289)">
<path id="Icon" d="M9.89919 1.71436V2.51859M2.6611 9.75668H1.85686M4.67168 4.52917L4.18906 4.04655M15.1267 4.52917L15.6094 4.04655M17.9415 9.75668H17.1373M8.29073 10.963H11.5077M9.89919 10.963V14.9842M12.714 13.6765C13.9317 12.8005 14.7246 11.3712 14.7246 9.75668C14.7246 7.09169 12.5642 4.93129 9.89919 4.93129C7.2342 4.93129 5.0738 7.09169 5.0738 9.75668C5.0738 11.3712 5.86671 12.8005 7.08438 13.6765V15.2255C7.08438 16.1263 7.08438 16.5767 7.25969 16.9208C7.4139 17.2234 7.65996 17.4695 7.96262 17.6237C8.30668 17.799 8.7571 17.799 9.65792 17.799H10.1405C11.0413 17.799 11.4917 17.799 11.8358 17.6237C12.1384 17.4695 12.3845 17.2234 12.5387 16.9208C12.714 16.5767 12.714 16.1263 12.714 15.2255V13.6765Z" stroke="white" stroke-width="1.60847" stroke-linecap="round" stroke-linejoin="round"/>
</g>
<defs>
<clipPath id="clip0_2_2289">
<rect width="19.3016" height="19.3016" fill="white" transform="translate(0.248398 0.105957)"/>
</clipPath>
</defs>
</svg>
