<svg width="108" height="27" viewBox="0 0 108 27" fill="none" xmlns="http://www.w3.org/2000/svg">
<g id="Logo" clip-path="url(#clip0_2175_231)">
<path id="Vector" d="M32.9845 18.6002H40.5638V16.3173H35.6783V7.71826H32.9845V18.6002Z" fill="#340E0E"/>
<path id="Vector_2" d="M45.0542 17.0782C43.9736 17.0782 43.4105 16.1346 43.4105 14.7192C43.4105 13.3038 43.9736 12.345 45.0542 12.345C46.1348 12.345 46.7132 13.3038 46.7132 14.7192C46.7132 16.1346 46.1348 17.0782 45.0542 17.0782ZM45.0695 18.8437C47.5807 18.8437 49.2244 17.063 49.2244 14.7192C49.2244 12.3754 47.5807 10.5947 45.0695 10.5947C42.5735 10.5947 40.8993 12.3754 40.8993 14.7192C40.8993 17.063 42.5735 18.8437 45.0695 18.8437Z" fill="#340E0E"/>
<path id="Vector_3" d="M53.5711 21.2941C54.7278 21.2941 55.7475 21.0354 56.4324 20.4266C57.0564 19.8635 57.4673 19.0112 57.4673 17.8393V10.8079H55.0931V11.645H55.0626C54.6061 10.9905 53.906 10.5796 52.871 10.5796C50.9382 10.5796 49.5988 12.1929 49.5988 14.4758C49.5988 16.8652 51.2273 18.1741 52.9776 18.1741C53.9212 18.1741 54.5147 17.7936 54.9713 17.2762H55.0322V18.0524C55.0322 18.996 54.5908 19.5439 53.5407 19.5439C52.7188 19.5439 52.3079 19.1938 52.1709 18.7829H49.7663C50.0098 20.4114 51.4252 21.2941 53.5711 21.2941ZM53.5559 16.3326C52.6275 16.3326 52.0187 15.5716 52.0187 14.3997C52.0187 13.2126 52.6275 12.4516 53.5559 12.4516C54.5908 12.4516 55.1387 13.3343 55.1387 14.3845C55.1387 15.4803 54.6365 16.3326 53.5559 16.3326Z" fill="#340E0E"/>
<path id="Vector_4" d="M62.3492 17.0782C61.2686 17.0782 60.7055 16.1346 60.7055 14.7192C60.7055 13.3038 61.2686 12.345 62.3492 12.345C63.4298 12.345 64.0081 13.3038 64.0081 14.7192C64.0081 16.1346 63.4298 17.0782 62.3492 17.0782ZM62.3644 18.8437C64.8756 18.8437 66.5193 17.063 66.5193 14.7192C66.5193 12.3754 64.8756 10.5947 62.3644 10.5947C59.8684 10.5947 58.1942 12.3754 58.1942 14.7192C58.1942 17.063 59.8684 18.8437 62.3644 18.8437Z" fill="#340E0E"/>
<path id="Vector_5" d="M89.868 18.8285C90.9485 18.8285 91.6334 18.4024 92.1965 17.6414H92.2422V18.6003H94.6164V10.8079H92.1357V15.1606C92.1357 16.089 91.6182 16.7283 90.7659 16.7283C89.9745 16.7283 89.594 16.2564 89.594 15.4042V10.8079H87.1284V15.9216C87.1284 17.6566 88.0721 18.8285 89.868 18.8285Z" fill="#340E0E"/>
<path id="Vector_6" d="M67.2435 18.6002H69.7243V10.8078H67.2435V18.6002ZM67.2435 9.72724H69.7243V7.71826H67.2435V9.72724Z" fill="#340E0E"/>
<path id="Vector_7" d="M70.8011 21.1724H73.2819V17.7936H73.3123C73.7993 18.4481 74.5146 18.8438 75.5191 18.8438C77.5585 18.8438 78.9131 17.2305 78.9131 14.7041C78.9131 12.3603 77.6499 10.5796 75.58 10.5796C74.5146 10.5796 73.7537 11.0514 73.221 11.7515H73.1753V10.8079H70.8011V21.1724ZM74.8799 16.9261C73.8145 16.9261 73.2058 16.0586 73.2058 14.7954C73.2058 13.5322 73.7537 12.5733 74.8342 12.5733C75.8996 12.5733 76.4019 13.4561 76.4019 14.7954C76.4019 16.1195 75.8235 16.9261 74.8799 16.9261Z" fill="#340E0E"/>
<path id="Vector_8" d="M82.952 18.8438C84.9914 18.8438 86.4981 17.9611 86.4981 16.2565C86.4981 14.2627 84.8848 13.9127 83.5151 13.6844C82.5258 13.5017 81.6431 13.4256 81.6431 12.8777C81.6431 12.3907 82.1149 12.1624 82.7237 12.1624C83.4085 12.1624 83.8803 12.3755 83.9717 13.0756H86.2546C86.1328 11.5384 84.9457 10.5796 82.7389 10.5796C80.8973 10.5796 79.3754 11.4319 79.3754 13.0756C79.3754 14.9019 80.8212 15.2672 82.1758 15.4955C83.2107 15.6781 84.1543 15.7542 84.1543 16.4543C84.1543 16.9566 83.6825 17.2305 82.9367 17.2305C82.1149 17.2305 81.5974 16.85 81.5061 16.0738H79.1623C79.2384 17.7936 80.669 18.8438 82.952 18.8438Z" fill="#340E0E"/>
<path id="Vector_9" d="M95.6951 18.6003H98.1759V14.2323C98.1759 13.3039 98.6325 12.6494 99.4087 12.6494C100.154 12.6494 100.504 13.1365 100.504 13.9735V18.6003H102.985V14.2323C102.985 13.3039 103.427 12.6494 104.218 12.6494C104.964 12.6494 105.314 13.1365 105.314 13.9735V18.6003H107.795V13.5322C107.795 11.7819 106.912 10.5796 105.146 10.5796C104.142 10.5796 103.305 11.0057 102.696 11.9493H102.666C102.27 11.1123 101.494 10.5796 100.474 10.5796C99.3478 10.5796 98.6021 11.1123 98.115 11.9189H98.0694V10.8079H95.6951V18.6003Z" fill="#340E0E"/>
<path id="Vector_10" fill-rule="evenodd" clip-rule="evenodd" d="M13.2143 26.2101C20.2189 26.2101 25.8972 20.5317 25.8972 13.5271C25.8972 6.52258 20.2189 0.844238 13.2143 0.844238C6.2097 0.844238 0.531372 6.52258 0.531372 13.5271C0.531372 20.5317 6.2097 26.2101 13.2143 26.2101ZM17.1709 6.75248C17.3635 6.06837 16.6996 5.66383 16.0933 6.09579L7.62945 12.1254C6.9719 12.5939 7.07533 13.5271 7.78481 13.5271H10.0136V13.5099H14.3574L10.818 14.7587L9.25768 20.3019C9.06509 20.986 9.72892 21.3905 10.3353 20.9585L18.7992 14.9289C19.4567 14.4605 19.3532 13.5271 18.6438 13.5271H15.2639L17.1709 6.75248Z" fill="#F15757"/>
</g>
<defs>
<clipPath id="clip0_2175_231">
<rect width="107.805" height="26" fill="white" transform="translate(0.0975647 0.756592)"/>
</clipPath>
</defs>
</svg>
