<svg width="106" height="27" viewBox="0 0 106 27" fill="none" xmlns="http://www.w3.org/2000/svg">
<g id="Logo" clip-path="url(#clip0_2175_132)">
<path id="Vector" d="M30.8878 19.016H38.4671V16.7331H33.5816V8.13403H30.8878V19.016Z" fill="#2F234F"/>
<path id="Vector_2" d="M42.9576 17.494C41.877 17.494 41.3139 16.5504 41.3139 15.135C41.3139 13.7196 41.877 12.7607 42.9576 12.7607C44.0382 12.7607 44.6165 13.7196 44.6165 15.135C44.6165 16.5504 44.0382 17.494 42.9576 17.494ZM42.9728 19.2595C45.484 19.2595 47.1277 17.4788 47.1277 15.135C47.1277 12.7912 45.484 11.0105 42.9728 11.0105C40.4768 11.0105 38.8027 12.7912 38.8027 15.135C38.8027 17.4788 40.4768 19.2595 42.9728 19.2595Z" fill="#2F234F"/>
<path id="Vector_3" d="M51.4744 21.7099C52.6311 21.7099 53.6508 21.4512 54.3357 20.8424C54.9597 20.2793 55.3706 19.427 55.3706 18.2551V11.2237H52.9964V12.0607H52.9659C52.5094 11.4063 51.8093 10.9954 50.7743 10.9954C48.8415 10.9954 47.5021 12.6086 47.5021 14.8916C47.5021 17.281 49.1306 18.5899 50.8809 18.5899C51.8245 18.5899 52.418 18.2094 52.8746 17.6919H52.9355V18.4681C52.9355 19.4118 52.4941 19.9597 51.444 19.9597C50.6221 19.9597 50.2112 19.6096 50.0742 19.1987H47.6696C47.9131 20.8272 49.3285 21.7099 51.4744 21.7099ZM51.4592 16.7483C50.5308 16.7483 49.922 15.9874 49.922 14.8155C49.922 13.6283 50.5308 12.8674 51.4592 12.8674C52.4941 12.8674 53.042 13.7501 53.042 14.8002C53.042 15.896 52.5398 16.7483 51.4592 16.7483Z" fill="#2F234F"/>
<path id="Vector_4" d="M60.2525 17.494C59.1719 17.494 58.6088 16.5504 58.6088 15.135C58.6088 13.7196 59.1719 12.7607 60.2525 12.7607C61.3331 12.7607 61.9114 13.7196 61.9114 15.135C61.9114 16.5504 61.3331 17.494 60.2525 17.494ZM60.2677 19.2595C62.779 19.2595 64.4229 17.4788 64.4229 15.135C64.4229 12.7912 62.779 11.0105 60.2677 11.0105C57.7717 11.0105 56.0976 12.7912 56.0976 15.135C56.0976 17.4788 57.7717 19.2595 60.2677 19.2595Z" fill="#2F234F"/>
<path id="Vector_5" d="M65.1471 19.016H67.6278V11.2236H65.1471V19.016ZM65.1471 10.143H67.6278V8.13403H65.1471V10.143Z" fill="#2F234F"/>
<path id="Vector_6" d="M68.704 21.5881H71.1848V18.2094H71.2152C71.7022 18.8638 72.4175 19.2596 73.422 19.2596C75.4614 19.2596 76.816 17.6463 76.816 15.1198C76.816 12.776 75.5528 10.9954 73.4829 10.9954C72.4175 10.9954 71.6566 11.4672 71.1239 12.1673H71.0782V11.2237H68.704V21.5881ZM72.7828 17.3419C71.7174 17.3419 71.1087 16.4744 71.1087 15.2112C71.1087 13.9479 71.6566 12.9891 72.7372 12.9891C73.8025 12.9891 74.3048 13.8718 74.3048 15.2112C74.3048 16.5353 73.7264 17.3419 72.7828 17.3419Z" fill="#2F234F"/>
<path id="Vector_7" d="M80.8555 19.2596C82.8949 19.2596 84.4017 18.3768 84.4017 16.6722C84.4017 14.6785 82.7884 14.3284 81.4186 14.1001C80.4294 13.9175 79.5466 13.8414 79.5466 13.2935C79.5466 12.8065 80.0184 12.5782 80.6272 12.5782C81.3121 12.5782 81.7839 12.7913 81.8752 13.4914H84.1581C84.0364 11.9542 82.8493 10.9954 80.6424 10.9954C78.8009 10.9954 77.2789 11.8477 77.2789 13.4914C77.2789 15.3177 78.7248 15.683 80.0793 15.9113C81.1142 16.0939 82.0578 16.17 82.0578 16.8701C82.0578 17.3723 81.586 17.6463 80.8403 17.6463C80.0184 17.6463 79.501 17.2658 79.4097 16.4896H77.0658C77.1419 18.2094 78.5726 19.2596 80.8555 19.2596Z" fill="#2F234F"/>
<path id="Vector_8" d="M87.7709 19.2443C88.8514 19.2443 89.5363 18.8182 90.0995 18.0572H90.1451V19.016H92.5194V11.2236H90.0386V15.5764C90.0386 16.5048 89.5211 17.144 88.6688 17.144C87.8774 17.144 87.4969 16.6722 87.4969 15.8199V11.2236H85.0314V16.3374C85.0314 18.0724 85.975 19.2443 87.7709 19.2443Z" fill="#2F234F"/>
<path id="Vector_9" d="M93.5987 19.016H96.0794V14.648C96.0794 13.7197 96.536 13.0652 97.3122 13.0652C98.058 13.0652 98.408 13.5522 98.408 14.3893V19.016H100.889V14.648C100.889 13.7197 101.33 13.0652 102.122 13.0652C102.867 13.0652 103.217 13.5522 103.217 14.3893V19.016H105.698V13.9479C105.698 12.1977 104.815 10.9954 103.05 10.9954C102.045 10.9954 101.208 11.4215 100.6 12.3651H100.569C100.173 11.528 99.3973 10.9954 98.3776 10.9954C97.2514 10.9954 96.5056 11.528 96.0186 12.3347H95.9729V11.2237H93.5987V19.016Z" fill="#2F234F"/>
<path id="Vector_10" fill-rule="evenodd" clip-rule="evenodd" d="M5.53678 3.22444C4.62953 3.85882 3.80914 4.60886 3.09696 5.45317C6.00725 5.18298 9.70466 5.62417 13.9973 7.77052C18.5813 10.0625 22.2726 10.1399 24.8415 9.64442C24.6084 8.93868 24.3149 8.2604 23.9673 7.6156C21.0266 7.92576 17.2566 7.51521 12.863 5.31847C10.073 3.92347 7.61363 3.34883 5.53678 3.22444ZM22.2495 5.1705C19.9272 2.57579 16.5523 0.942871 12.796 0.942871C11.6929 0.942871 10.6226 1.08372 9.60225 1.34839C10.9842 1.72546 12.4522 2.27711 13.9973 3.04967C17.2141 4.65803 19.9913 5.1759 22.2495 5.1705ZM25.3907 12.1216C22.2872 12.7345 18.0016 12.6086 12.863 10.0393C8.05893 7.63728 4.23532 7.66753 1.65655 8.24061C1.52344 8.27016 1.39347 8.30124 1.26663 8.33358C0.929004 9.06785 0.6595 9.83999 0.466129 10.6418C0.67266 10.5866 0.886078 10.5342 1.10627 10.4852C4.23478 9.79002 8.65509 9.82021 13.9973 12.4914C18.8014 14.8934 22.625 14.8631 25.2038 14.2901C25.2922 14.2705 25.3792 14.2502 25.4648 14.2292C25.4742 14.0293 25.4789 13.8281 25.4789 13.6258C25.4789 13.1169 25.449 12.615 25.3907 12.1216ZM25.0508 16.9058C21.9774 17.4431 17.8165 17.2369 12.863 14.7601C8.05893 12.3581 4.23532 12.3884 1.65655 12.9615C1.08413 13.0886 0.569201 13.2435 0.114956 13.4071C0.113718 13.4798 0.113098 13.5527 0.113098 13.6258C0.113098 20.6304 5.79143 26.3087 12.796 26.3087C18.6664 26.3087 23.6052 22.3205 25.0508 16.9058Z" fill="#7F57F1"/>
</g>
<defs>
<clipPath id="clip0_2175_132">
<rect width="105.902" height="26" fill="white" transform="translate(0.0487671 0.756592)"/>
</clipPath>
</defs>
</svg>
