<svg width="108" height="27" viewBox="0 0 108 27" fill="none" xmlns="http://www.w3.org/2000/svg">
<g id="Logo" clip-path="url(#clip0_2175_244)">
<path id="Vector" d="M32.615 19.3517H40.1943V17.0688H35.3089V8.46973H32.615V19.3517Z" fill="#2F234F"/>
<path id="Vector_2" d="M44.6848 17.8299C43.6042 17.8299 43.0411 16.8863 43.0411 15.4709C43.0411 14.0555 43.6042 13.0967 44.6848 13.0967C45.7654 13.0967 46.3437 14.0555 46.3437 15.4709C46.3437 16.8863 45.7654 17.8299 44.6848 17.8299ZM44.7 19.5954C47.2112 19.5954 48.8549 17.8147 48.8549 15.4709C48.8549 13.1271 47.2112 11.3464 44.7 11.3464C42.204 11.3464 40.5298 13.1271 40.5298 15.4709C40.5298 17.8147 42.204 19.5954 44.7 19.5954Z" fill="#2F234F"/>
<path id="Vector_3" d="M53.2016 22.0456C54.3583 22.0456 55.378 21.7869 56.0629 21.1781C56.6869 20.615 57.0978 19.7627 57.0978 18.5908V11.5593H54.7236V12.3964H54.6931C54.2365 11.742 53.5364 11.3311 52.5015 11.3311C50.5686 11.3311 49.2293 12.9443 49.2293 15.2273C49.2293 17.6167 50.8578 18.9256 52.608 18.9256C53.5517 18.9256 54.1452 18.5451 54.6018 18.0276H54.6627V18.8038C54.6627 19.7474 54.2213 20.2953 53.1712 20.2953C52.3493 20.2953 51.9384 19.9453 51.8014 19.5344H49.3967C49.6402 21.1629 51.0557 22.0456 53.2016 22.0456ZM53.1864 17.084C52.258 17.084 51.6492 16.3231 51.6492 15.1512C51.6492 13.964 52.258 13.2031 53.1864 13.2031C54.2213 13.2031 54.7692 14.0858 54.7692 15.1359C54.7692 16.2317 54.267 17.084 53.1864 17.084Z" fill="#2F234F"/>
<path id="Vector_4" d="M61.9797 17.8299C60.8991 17.8299 60.336 16.8863 60.336 15.4709C60.336 14.0555 60.8991 13.0967 61.9797 13.0967C63.0603 13.0967 63.6384 14.0555 63.6384 15.4709C63.6384 16.8863 63.0603 17.8299 61.9797 17.8299ZM61.9949 19.5954C64.5059 19.5954 66.1496 17.8147 66.1496 15.4709C66.1496 13.1271 64.5059 11.3464 61.9949 11.3464C59.4989 11.3464 57.8248 13.1271 57.8248 15.4709C57.8248 17.8147 59.4989 19.5954 61.9949 19.5954Z" fill="#2F234F"/>
<path id="Vector_5" d="M66.8745 19.3517H69.3552V11.5593H66.8745V19.3517ZM66.8745 10.4787H69.3552V8.46973H66.8745V10.4787Z" fill="#2F234F"/>
<path id="Vector_6" d="M70.4314 21.9238H72.9121V18.5451H72.9426C73.4296 19.1995 74.1449 19.5952 75.1494 19.5952C77.1888 19.5952 78.5434 17.982 78.5434 15.4555C78.5434 13.1117 77.2801 11.3311 75.2103 11.3311C74.1449 11.3311 73.3839 11.8029 72.8513 12.503H72.8056V11.5593H70.4314V21.9238ZM74.5102 17.6776C73.4448 17.6776 72.836 16.8101 72.836 15.5469C72.836 14.2836 73.384 13.3248 74.4645 13.3248C75.5299 13.3248 76.0321 14.2075 76.0321 15.5469C76.0321 16.871 75.4538 17.6776 74.5102 17.6776Z" fill="#2F234F"/>
<path id="Vector_7" d="M82.5822 19.5952C84.6217 19.5952 86.1284 18.7125 86.1284 17.0079C86.1284 15.0142 84.5151 14.6641 83.1454 14.4358C82.1561 14.2532 81.2734 14.1771 81.2734 13.6292C81.2734 13.1422 81.7452 12.9139 82.354 12.9139C83.0388 12.9139 83.5106 13.127 83.6019 13.8271H85.8849C85.7631 12.2899 84.576 11.3311 82.3692 11.3311C80.5276 11.3311 79.0057 12.1833 79.0057 13.8271C79.0057 15.6534 80.4515 16.0187 81.8061 16.247C82.841 16.4296 83.7846 16.5057 83.7846 17.2058C83.7846 17.708 83.3128 17.982 82.567 17.982C81.7452 17.982 81.2277 17.6015 81.1364 16.8253H78.7926C78.8687 18.5451 80.2993 19.5952 82.5822 19.5952Z" fill="#2F234F"/>
<path id="Vector_8" d="M89.4983 19.58C90.5788 19.58 91.2637 19.1539 91.8268 18.3929H91.8725V19.3517H94.2467V11.5593H91.766V15.9121C91.766 16.8405 91.2485 17.4797 90.3962 17.4797C89.6048 17.4797 89.2243 17.0079 89.2243 16.1556V11.5593H86.7587V16.6731C86.7587 18.4081 87.7023 19.58 89.4983 19.58Z" fill="#2F234F"/>
<path id="Vector_9" d="M95.326 19.3517H97.8068V14.9837C97.8068 14.0553 98.2634 13.4009 99.0396 13.4009C99.7854 13.4009 100.135 13.8879 100.135 14.725V19.3517H102.616V14.9837C102.616 14.0553 103.058 13.4009 103.849 13.4009C104.595 13.4009 104.945 13.8879 104.945 14.725V19.3517H107.426V14.2836C107.426 12.5334 106.543 11.3311 104.777 11.3311C103.773 11.3311 102.936 11.7572 102.327 12.7008H102.297C101.901 11.8637 101.125 11.3311 100.105 11.3311C98.9787 11.3311 98.233 11.8637 97.7459 12.6704H97.7003V11.5593H95.326V19.3517Z" fill="#2F234F"/>
<path id="Vector_10" fill-rule="evenodd" clip-rule="evenodd" d="M12.8448 26.3275C19.8494 26.3275 25.5277 20.6492 25.5277 13.6446C25.5277 6.64001 19.8494 0.96167 12.8448 0.96167C5.84022 0.96167 0.161888 6.64001 0.161888 13.6446C0.161888 20.6492 5.84022 26.3275 12.8448 26.3275ZM14.8024 10.7609C15.8835 9.6797 15.8835 7.92685 14.8024 6.8457C13.7212 5.76455 11.9684 5.76455 10.8872 6.8457C9.80615 7.92685 9.80615 9.6797 10.8872 10.7609L12.8448 12.7184L14.8024 10.7609ZM15.7286 15.6022C16.8097 16.6833 18.5626 16.6833 19.6437 15.6022C20.7248 14.521 20.7248 12.7682 19.6437 11.687C18.5626 10.6059 16.8097 10.6059 15.7286 11.687L13.771 13.6446L15.7286 15.6022ZM14.8024 20.4435C15.8835 19.3624 15.8835 17.6095 14.8024 16.5284L12.8448 14.5708L10.8872 16.5284C9.80615 17.6095 9.80615 19.3624 10.8872 20.4435C11.9684 21.5247 13.7212 21.5247 14.8024 20.4435ZM6.0459 15.6022C4.96478 14.521 4.96478 12.7682 6.0459 11.687C7.12707 10.6059 8.87992 10.6059 9.96107 11.687L11.9186 13.6446L9.96107 15.6022C8.87992 16.6833 7.12707 16.6833 6.0459 15.6022Z" fill="#7F57F1"/>
</g>
<defs>
<clipPath id="clip0_2175_244">
<rect width="107.805" height="26" fill="white" transform="translate(0.0975609 0.756592)"/>
</clipPath>
</defs>
</svg>
