<svg width="108" height="27" viewBox="0 0 108 27" fill="none" xmlns="http://www.w3.org/2000/svg">
<g id="Logo" clip-path="url(#clip0_2175_15)">
<path id="Vector" d="M31.9809 19.1166H39.5602V16.8336H34.6747V8.23462H31.9809V19.1166Z" fill="#3C2B1F"/>
<path id="Vector_2" d="M44.0507 17.5946C42.9701 17.5946 42.407 16.651 42.407 15.2356C42.407 13.8202 42.9701 12.8613 44.0507 12.8613C45.1313 12.8613 45.7096 13.8202 45.7096 15.2356C45.7096 16.651 45.1313 17.5946 44.0507 17.5946ZM44.0659 19.3601C46.5771 19.3601 48.2208 17.5794 48.2208 15.2356C48.2208 12.8918 46.5771 11.1111 44.0659 11.1111C41.5699 11.1111 39.8958 12.8918 39.8958 15.2356C39.8958 17.5794 41.5699 19.3601 44.0659 19.3601Z" fill="#3C2B1F"/>
<path id="Vector_3" d="M52.5675 21.8105C53.7242 21.8105 54.7439 21.5518 55.4288 20.943C56.0528 20.3798 56.4637 19.5276 56.4637 18.3557V11.3242H54.0895V12.1613H54.059C53.6025 11.5069 52.9024 11.0959 51.8674 11.0959C49.9345 11.0959 48.5952 12.7092 48.5952 14.9921C48.5952 17.3816 50.2237 18.6905 51.974 18.6905C52.9176 18.6905 53.5111 18.31 53.9677 17.7925H54.0286V18.5687C54.0286 19.5123 53.5872 20.0602 52.5371 20.0602C51.7152 20.0602 51.3043 19.7102 51.1673 19.2993H48.7626C49.0062 20.9278 50.4216 21.8105 52.5675 21.8105ZM52.5523 16.8489C51.6239 16.8489 51.0151 16.0879 51.0151 14.916C51.0151 13.7289 51.6239 12.9679 52.5523 12.9679C53.5872 12.9679 54.1351 13.8507 54.1351 14.9008C54.1351 15.9966 53.6329 16.8489 52.5523 16.8489Z" fill="#3C2B1F"/>
<path id="Vector_4" d="M61.3456 17.5946C60.265 17.5946 59.7019 16.651 59.7019 15.2356C59.7019 13.8202 60.265 12.8613 61.3456 12.8613C62.4262 12.8613 63.0046 13.8202 63.0046 15.2356C63.0046 16.651 62.4262 17.5946 61.3456 17.5946ZM61.3608 19.3601C63.8721 19.3601 65.5155 17.5794 65.5155 15.2356C65.5155 12.8918 63.8721 11.1111 61.3608 11.1111C58.8648 11.1111 57.1907 12.8918 57.1907 15.2356C57.1907 17.5794 58.8648 19.3601 61.3608 19.3601Z" fill="#3C2B1F"/>
<path id="Vector_5" d="M66.2403 19.1166H68.7211V11.3242H66.2403V19.1166ZM66.2403 10.2436H68.7211V8.23462H66.2403V10.2436Z" fill="#3C2B1F"/>
<path id="Vector_6" d="M69.7972 21.6887H72.278V18.31H72.3085C72.7955 18.9644 73.5108 19.3601 74.5153 19.3601C76.5547 19.3601 77.9092 17.7469 77.9092 15.2204C77.9092 12.8766 76.646 11.0959 74.5762 11.0959C73.5108 11.0959 72.7498 11.5678 72.2171 12.2678H72.1715V11.3242H69.7972V21.6887ZM73.8761 17.4425C72.8107 17.4425 72.2019 16.575 72.2019 15.3118C72.2019 14.0485 72.7498 13.0897 73.8304 13.0897C74.8958 13.0897 75.398 13.9724 75.398 15.3118C75.398 16.6358 74.8197 17.4425 73.8761 17.4425Z" fill="#3C2B1F"/>
<path id="Vector_7" d="M81.9481 19.3601C83.9875 19.3601 85.4943 18.4774 85.4943 16.7728C85.4943 14.7791 83.881 14.429 82.5112 14.2007C81.522 14.0181 80.6392 13.942 80.6392 13.3941C80.6392 12.9071 81.111 12.6788 81.7198 12.6788C82.4047 12.6788 82.8765 12.8919 82.9678 13.5919H85.2507C85.129 12.0548 83.9419 11.0959 81.735 11.0959C79.8935 11.0959 78.3715 11.9482 78.3715 13.5919C78.3715 15.4183 79.8174 15.7836 81.1719 16.0119C82.2068 16.1945 83.1504 16.2706 83.1504 16.9707C83.1504 17.4729 82.6786 17.7469 81.9329 17.7469C81.111 17.7469 80.5936 17.3664 80.5023 16.5902H78.1584C78.2345 18.31 79.6652 19.3601 81.9481 19.3601Z" fill="#3C2B1F"/>
<path id="Vector_8" d="M88.8641 19.3449C89.9447 19.3449 90.6295 18.9188 91.1927 18.1578H91.2383V19.1166H93.6126V11.3242H91.1318V15.677C91.1318 16.6054 90.6143 17.2446 89.762 17.2446C88.9706 17.2446 88.5901 16.7728 88.5901 15.9205V11.3242H86.1246V16.438C86.1246 18.173 87.0682 19.3449 88.8641 19.3449Z" fill="#3C2B1F"/>
<path id="Vector_9" d="M94.6919 19.1166H97.1727V14.7486C97.1727 13.8202 97.6293 13.1658 98.4055 13.1658C99.1512 13.1658 99.5013 13.6528 99.5013 14.4899V19.1166H101.982V14.7486C101.982 13.8202 102.423 13.1658 103.215 13.1658C103.961 13.1658 104.311 13.6528 104.311 14.4899V19.1166H106.791V14.0485C106.791 12.2983 105.909 11.0959 104.143 11.0959C103.139 11.0959 102.302 11.5221 101.693 12.4657H101.662C101.267 11.6286 100.491 11.0959 99.4708 11.0959C98.3446 11.0959 97.5988 11.6286 97.1118 12.4353H97.0661V11.3242H94.6919V19.1166Z" fill="#3C2B1F"/>
<path id="Vector_10" d="M16.8453 2.01034L14.3512 1.34204L12.2494 9.18616L10.3518 2.10444L7.85767 2.77274L9.90786 10.424L4.80131 5.31749L2.97548 7.14332L8.57673 12.7446L1.60127 10.8755L0.932968 13.3696L8.55453 15.4118C8.46727 15.0355 8.42111 14.6433 8.42111 14.2404C8.42111 11.3882 10.7332 9.07613 13.5853 9.07613C16.4375 9.07613 18.7496 11.3882 18.7496 14.2404C18.7496 14.6407 18.704 15.0305 18.6178 15.4046L25.5444 17.2606L26.2127 14.7665L18.5608 12.7161L25.5367 10.8469L24.8684 8.35283L17.2168 10.403L22.3234 5.29653L20.4975 3.4707L14.974 8.99427L16.8453 2.01034Z" fill="#F97316"/>
<path id="Vector_11" d="M18.611 15.4336C18.3972 16.3376 17.9457 17.1498 17.3263 17.8005L22.3443 22.8185L24.1701 20.9927L18.611 15.4336Z" fill="#F97316"/>
<path id="Vector_12" d="M17.2756 17.853C16.6487 18.4933 15.8564 18.9712 14.968 19.2174L16.7939 26.0319L19.288 25.3636L17.2756 17.853Z" fill="#F97316"/>
<path id="Vector_13" d="M14.8748 19.2422C14.4626 19.3482 14.0306 19.4045 13.5853 19.4045C13.1083 19.4045 12.6464 19.3398 12.2079 19.2188L10.3803 26.0395L12.8744 26.7078L14.8748 19.2422Z" fill="#F97316"/>
<path id="Vector_14" d="M12.1198 19.1936C11.2449 18.9351 10.4667 18.4512 9.85263 17.8091L4.82228 22.8394L6.64811 24.6653L12.1198 19.1936Z" fill="#F97316"/>
<path id="Vector_15" d="M9.81065 17.7646C9.20707 17.1184 8.76742 16.3171 8.55815 15.427L1.60895 17.289L2.27724 19.7831L9.81065 17.7646Z" fill="#F97316"/>
</g>
<defs>
<clipPath id="clip0_2175_15">
<rect width="106.537" height="26" fill="white" transform="translate(0.731705 0.756592)"/>
</clipPath>
</defs>
</svg>
