<svg width="84" height="27" viewBox="0 0 84 27" fill="none" xmlns="http://www.w3.org/2000/svg">
<g id="Logo">
<path id="Vector" fill-rule="evenodd" clip-rule="evenodd" d="M41.5371 4.94349C42.3164 4.15914 43.5799 4.15914 44.3593 4.94349C45.1386 5.7279 45.1386 6.99965 44.3593 7.78406L39.6079 12.5663C38.2438 10.7262 38.392 8.10912 40.0525 6.43777L41.5371 4.94349Z" fill="#4F9E91"/>
<path id="Vector_2" fill-rule="evenodd" clip-rule="evenodd" d="M48.3294 15.7329C49.1088 16.5172 49.1088 17.789 48.3294 18.5734C47.5505 19.3578 46.2868 19.3578 45.5074 18.5734L40.7561 13.7912C42.5843 12.4182 45.1845 12.5673 46.845 14.2386L48.3294 15.7329Z" fill="#EBE1C5"/>
<path id="Vector_3" fill-rule="evenodd" clip-rule="evenodd" d="M37.6097 22.5698C36.8305 23.3542 35.5669 23.3542 34.7876 22.5698C34.0083 21.7854 34.0083 20.5136 34.7876 19.7292L39.5389 14.947C40.903 16.7871 40.7549 19.4042 39.0943 21.0755L37.6097 22.5698Z" fill="#EBCC6E"/>
<path id="Vector_4" fill-rule="evenodd" clip-rule="evenodd" d="M30.8173 11.7802C30.038 10.9958 30.038 9.72403 30.8173 8.93962C31.5966 8.15522 32.8602 8.15522 33.6395 8.93962L38.3908 13.7219C36.5626 15.0949 33.9624 14.9457 32.3019 13.2744L30.8173 11.7802Z" fill="#ED834E"/>
<path id="Vector_5" fill-rule="evenodd" clip-rule="evenodd" d="M40.4753 21.984C41.6244 20.698 42.1585 19.0525 42.0775 17.4324L44.3594 19.7291C44.365 19.7348 44.3708 19.7405 44.3765 19.7462V21.3859C44.3765 22.4952 43.4831 23.3945 42.3809 23.3945C41.4857 23.3945 40.7282 22.8012 40.4753 21.984Z" fill="#ED834E"/>
<path id="Vector_6" fill-rule="evenodd" clip-rule="evenodd" d="M31.3991 14.6643C32.6767 15.821 34.3116 16.3585 35.9213 16.277L33.6395 18.5737C33.6338 18.5794 33.6281 18.5852 33.6225 18.5909H31.9934C30.8913 18.5909 29.9978 17.6916 29.9978 16.5823C29.9978 15.6814 30.5872 14.9189 31.3991 14.6643Z" fill="#4F9E91"/>
<path id="Vector_7" fill-rule="evenodd" clip-rule="evenodd" d="M47.7476 12.849C46.4701 11.6923 44.8352 11.1547 43.2256 11.2362L45.5074 8.9396C45.5131 8.93389 45.5187 8.92813 45.5244 8.92236H47.1535C48.2558 8.92236 49.1493 9.82168 49.1493 10.931C49.1493 11.832 48.5596 12.5944 47.7476 12.849Z" fill="#EBCC6E"/>
<path id="Vector_8" fill-rule="evenodd" clip-rule="evenodd" d="M38.6716 5.52915C37.5224 6.81509 36.9884 8.46061 37.0694 10.0808L34.7875 7.7841C34.7818 7.77839 34.7761 7.77268 34.7704 7.76697V6.12726C34.7704 5.01797 35.6639 4.11865 36.766 4.11865C37.6612 4.11865 38.4187 4.71196 38.6716 5.52915Z" fill="#EBE1C5"/>
<path id="Vector_9" fill-rule="evenodd" clip-rule="evenodd" d="M36.7661 2.48438C34.7673 2.48438 33.1469 4.11531 33.1469 6.12714V6.83564C31.9444 6.5194 30.6117 6.83547 29.6693 7.78396C28.2559 9.20656 28.2559 11.513 29.6693 12.9356L30.167 13.4366C29.0945 14.0688 28.3743 15.2408 28.3743 16.5821C28.3743 18.594 29.9947 20.2249 31.9935 20.2249H32.6974C32.3832 21.4353 32.6972 22.7766 33.6396 23.7251C35.053 25.1477 37.3445 25.1477 38.7579 23.7251L40.2425 22.2309C41.5521 20.9127 42.1638 19.1581 42.0775 17.4322L44.3594 19.7289C45.7728 21.1515 48.0644 21.1515 49.4779 19.7289C50.8913 18.3063 50.8913 15.9998 49.4779 14.5773L48.9803 14.0764C50.0523 13.4442 50.7728 12.2722 50.7728 10.9309C50.7728 8.91903 49.1522 7.2881 47.1536 7.2881H46.4496C46.7639 6.07769 46.4498 4.73631 45.5074 3.78782C44.0941 2.36523 41.8025 2.36523 40.3891 3.78782L38.9045 5.28209C37.5949 6.60023 36.9832 8.35483 37.0695 10.0807L34.7877 7.78396C34.7819 7.77825 34.7763 7.77254 34.7705 7.76683V6.12714C34.7705 5.01785 35.664 4.11859 36.7661 4.11859C37.6613 4.11859 38.4188 4.71184 38.6717 5.52903C38.7467 5.44515 38.8243 5.3628 38.9045 5.28209L39.8913 4.28878C39.2632 3.20932 38.0988 2.48438 36.7661 2.48438ZM45.5245 8.92231C45.5188 8.92802 45.5132 8.93378 45.5074 8.93949L43.2256 11.2361C44.8354 11.1546 46.4702 11.6922 47.7477 12.8489C48.5597 12.5943 49.1494 11.8318 49.1494 10.9309C49.1494 9.82157 48.2559 8.92231 47.1536 8.92231H45.5245ZM33.6225 18.5907C33.6282 18.5849 33.6338 18.5792 33.6396 18.5735L35.9214 16.2767C34.3117 16.3583 32.6769 15.8207 31.3992 14.6641C30.5873 14.9187 29.9979 15.6811 29.9979 16.5821C29.9979 17.6914 30.8914 18.5907 31.9935 18.5907H33.6225ZM42.3809 25.0286C41.0482 25.0286 39.8838 24.3036 39.2557 23.2242L40.2425 22.2309C40.3227 22.1501 40.4003 22.0678 40.4753 21.9839C40.7282 22.8011 41.4857 23.3944 42.3809 23.3944C43.4831 23.3944 44.3765 22.4952 44.3765 21.3859V19.7462C44.8442 20.2107 45.4063 20.5211 46.0002 20.6773V21.3859C46.0002 23.3977 44.3798 25.0286 42.3809 25.0286ZM44.3594 4.94335C43.58 4.159 42.3165 4.159 41.5372 4.94335L40.0526 6.43761C38.3921 8.10896 38.2439 10.726 39.608 12.5662L44.3594 7.7839C45.1387 6.9995 45.1387 5.72776 44.3594 4.94335ZM48.3295 18.5734C49.1089 17.789 49.1089 16.5172 48.3295 15.7328L46.845 14.2386C45.1845 12.5673 42.5843 12.4181 40.7561 13.7911L45.5074 18.5734C46.2868 19.3578 47.5506 19.3578 48.3295 18.5734ZM37.6098 22.5695C36.8305 23.3539 35.567 23.3539 34.7876 22.5695C34.0083 21.7851 34.0083 20.5134 34.7876 19.729L39.539 14.9467C40.9031 16.7869 40.7549 19.404 39.0944 21.0753L37.6098 22.5695ZM30.8174 8.93949C30.0381 9.7239 30.0381 10.9956 30.8174 11.78L32.302 13.2743C33.9625 14.9456 36.5627 15.0948 38.3909 13.7217L33.6396 8.93949C32.8602 8.15514 31.5967 8.15514 30.8174 8.93949Z" fill="#3D3A2C"/>
<path id="Vector_10" d="M1.58572 9.85083H3.3606V15.4019H6.409V16.9058H1.58572V9.85083Z" fill="#3D3A2C"/>
<path id="Vector_11" d="M9.6316 17.0573C9.03662 17.0573 8.51515 16.9496 8.06725 16.7343C7.61934 16.5123 7.27173 16.2095 7.02436 15.826C6.78373 15.4357 6.66339 14.9883 6.66339 14.4836C6.66339 13.9789 6.78373 13.5349 7.02436 13.1514C7.27173 12.7611 7.61934 12.4583 8.06725 12.243C8.51515 12.0209 9.03662 11.9099 9.6316 11.9099C10.2266 11.9099 10.748 12.0209 11.1959 12.243C11.6438 12.4583 11.9881 12.7611 12.2287 13.1514C12.4761 13.5349 12.5997 13.9789 12.5997 14.4836C12.5997 14.9883 12.4761 15.4357 12.2287 15.826C11.9881 16.2095 11.6438 16.5123 11.1959 16.7343C10.748 16.9496 10.2266 17.0573 9.6316 17.0573ZM9.6316 15.6745C9.98589 15.6745 10.2667 15.5703 10.4739 15.3617C10.6878 15.1463 10.7948 14.8537 10.7948 14.4836C10.7948 14.1135 10.6878 13.8242 10.4739 13.6156C10.2667 13.4003 9.98589 13.2927 9.6316 13.2927C9.27725 13.2927 8.99315 13.4003 8.77925 13.6156C8.57198 13.8242 8.46837 14.1135 8.46837 14.4836C8.46837 14.8537 8.57198 15.1463 8.77925 15.3617C8.99315 15.5703 9.27725 15.6745 9.6316 15.6745Z" fill="#3D3A2C"/>
<path id="Vector_12" d="M15.9149 19.2273C15.594 19.2273 15.2697 19.197 14.9422 19.1364C14.6213 19.0759 14.3438 18.9951 14.1099 18.8942V17.6629C14.638 17.8916 15.2396 18.006 15.9149 18.006C16.4029 18.006 16.7538 17.9051 16.9677 17.7032C17.1884 17.5014 17.2987 17.2053 17.2987 16.815V16.5224C17.1048 16.6906 16.8641 16.8218 16.5767 16.916C16.2959 17.0102 15.9951 17.0573 15.6742 17.0573C15.1661 17.0573 14.7182 16.9496 14.3305 16.7343C13.9428 16.519 13.6386 16.2162 13.418 15.826C13.204 15.4357 13.0971 14.9883 13.0971 14.4836C13.0971 13.9722 13.204 13.5214 13.418 13.1312C13.6319 12.7409 13.9327 12.4414 14.3205 12.2329C14.7082 12.0176 15.1528 11.9099 15.6541 11.9099C16.3427 11.9099 16.9109 12.1219 17.3588 12.5458V12.0613H19.0636V16.5728C19.0636 17.4139 18.8061 18.0666 18.2914 18.5309C17.7834 18.9951 16.9912 19.2273 15.9149 19.2273ZM16.1154 15.6847C16.3895 15.6847 16.6335 15.614 16.8474 15.4727C17.0614 15.3314 17.2117 15.143 17.2987 14.9075V14.0597C17.2051 13.8242 17.0513 13.6391 16.8374 13.5046C16.6235 13.3633 16.3828 13.2927 16.1154 13.2927C15.7544 13.2927 15.4636 13.4003 15.243 13.6156C15.0224 13.8242 14.9121 14.1101 14.9121 14.4735C14.9121 14.8436 15.0224 15.1396 15.243 15.3617C15.4636 15.577 15.7544 15.6847 16.1154 15.6847Z" fill="#3D3A2C"/>
<path id="Vector_13" d="M22.4795 17.0573C21.8845 17.0573 21.3631 16.9496 20.9152 16.7343C20.4673 16.5123 20.1196 16.2095 19.8723 15.826C19.6316 15.4357 19.5113 14.9883 19.5113 14.4836C19.5113 13.9789 19.6316 13.5349 19.8723 13.1514C20.1196 12.7611 20.4673 12.4583 20.9152 12.243C21.3631 12.0209 21.8845 11.9099 22.4795 11.9099C23.0744 11.9099 23.5959 12.0209 24.0438 12.243C24.4917 12.4583 24.836 12.7611 25.0766 13.1514C25.324 13.5349 25.4477 13.9789 25.4477 14.4836C25.4477 14.9883 25.324 15.4357 25.0766 15.826C24.836 16.2095 24.4917 16.5123 24.0438 16.7343C23.5959 16.9496 23.0744 17.0573 22.4795 17.0573ZM22.4795 15.6745C22.8338 15.6745 23.1145 15.5703 23.3218 15.3617C23.5357 15.1463 23.6427 14.8537 23.6427 14.4836C23.6427 14.1135 23.5357 13.8242 23.3218 13.6156C23.1145 13.4003 22.8338 13.2927 22.4795 13.2927C22.1252 13.2927 21.841 13.4003 21.6271 13.6156C21.4199 13.8242 21.3162 14.1135 21.3162 14.4836C21.3162 14.8537 21.4199 15.1463 21.6271 15.3617C21.841 15.5703 22.1252 15.6745 22.4795 15.6745Z" fill="#3D3A2C"/>
<path id="Vector_14" d="M53.7546 9.85083H55.5297V16.9058H53.7546V9.85083Z" fill="#3D3A2C"/>
<path id="Vector_15" d="M56.4283 12.0613H58.1332V12.5458C58.5808 12.1219 59.1491 11.9099 59.8375 11.9099C60.339 11.9099 60.7838 12.0176 61.1713 12.2329C61.5593 12.4414 61.8597 12.7409 62.0737 13.1312C62.2877 13.5147 62.3949 13.9622 62.3949 14.4735C62.3949 14.9781 62.2877 15.429 62.0737 15.826C61.8597 16.2162 61.5593 16.519 61.1713 16.7343C60.7905 16.9496 60.3458 17.0573 59.8375 17.0573C59.5169 17.0573 59.2092 17.0068 58.9155 16.9059C58.6279 16.8117 58.387 16.6805 58.1933 16.5123V19.1162H56.4283V12.0613ZM59.3765 15.6745C59.7376 15.6745 60.0285 15.5669 60.2486 15.3516C60.4693 15.1363 60.5799 14.8436 60.5799 14.4735C60.5799 14.1034 60.4693 13.8141 60.2486 13.6055C60.0285 13.3902 59.7376 13.2825 59.3765 13.2825C59.1092 13.2825 58.8683 13.3532 58.6543 13.4945C58.4404 13.6291 58.2871 13.8141 58.1933 14.0496V14.9075C58.2871 15.143 58.4404 15.3314 58.6543 15.4727C58.8683 15.6073 59.1092 15.6745 59.3765 15.6745Z" fill="#3D3A2C"/>
<path id="Vector_16" d="M65.0258 17.0573C64.6384 17.0573 64.234 17.0169 63.8129 16.9362C63.3917 16.8622 63.057 16.7545 62.8099 16.6132V15.3112C63.0839 15.4727 63.4113 15.6073 63.7926 15.715C64.1801 15.8158 64.5345 15.8663 64.8557 15.8663C65.0893 15.8663 65.26 15.8495 65.3667 15.8158C65.474 15.7822 65.5273 15.715 65.5273 15.614C65.5273 15.5332 65.4908 15.4693 65.4172 15.4222C65.3504 15.3684 65.223 15.3146 65.036 15.2607C64.8557 15.2002 64.6451 15.1363 64.4042 15.069C63.9965 14.9478 63.6758 14.8234 63.4417 14.6955C63.2075 14.5677 63.034 14.4062 62.92 14.2111C62.8065 14.016 62.7498 13.7704 62.7498 13.4743C62.7498 12.9495 62.9537 12.5592 63.3614 12.3035C63.7758 12.0411 64.3407 11.9099 65.0562 11.9099C65.4038 11.9099 65.7682 11.9469 66.149 12.0209C66.537 12.095 66.8273 12.1925 67.0216 12.3136V13.5954C66.8212 13.4609 66.5533 13.3498 66.2192 13.2624C65.8918 13.1749 65.584 13.1312 65.2965 13.1312C65.0696 13.1312 64.8922 13.1547 64.7653 13.2018C64.6384 13.2422 64.5749 13.3162 64.5749 13.4238C64.5749 13.5248 64.6384 13.6022 64.7653 13.656C64.8922 13.7098 65.1196 13.7771 65.447 13.8578C65.661 13.9117 65.7514 13.9352 65.7177 13.9285C66.1456 14.0429 66.4764 14.1707 66.7105 14.312C66.9447 14.4533 67.1081 14.6215 67.2019 14.8167C67.3024 15.005 67.3524 15.2473 67.3524 15.5434C67.3524 16.0076 67.1519 16.3777 66.751 16.6536C66.3562 16.9227 65.7811 17.0573 65.0258 17.0573Z" fill="#3D3A2C"/>
<path id="Vector_17" d="M69.9873 17.0573C69.3257 17.0573 68.8276 16.8722 68.4935 16.5022C68.1661 16.1321 68.0021 15.6443 68.0021 15.0387V12.0613H69.7671V14.8368C69.7671 15.3953 70.0176 15.6745 70.5191 15.6745C70.7465 15.6745 70.9537 15.6207 71.1407 15.5131C71.3277 15.4054 71.4816 15.2473 71.6018 15.0387V12.0613H73.3668V16.9059H71.6624V16.3811C71.4552 16.6031 71.2042 16.7713 70.9099 16.8857C70.6162 17.0001 70.3085 17.0573 69.9873 17.0573Z" fill="#3D3A2C"/>
<path id="Vector_18" d="M74.2703 12.0613H75.905V12.5861C76.1055 12.3708 76.3363 12.206 76.5969 12.0916C76.8575 11.9704 77.1349 11.9099 77.4291 11.9099C77.7902 11.9099 78.0777 11.9637 78.2917 12.0714C78.5124 12.1791 78.6893 12.3406 78.8229 12.5558C79.0234 12.354 79.2677 12.1959 79.5552 12.0815C79.8427 11.9671 80.1336 11.9099 80.4273 11.9099C81.0625 11.9099 81.5139 12.0748 81.7813 12.4045C82.0486 12.7274 82.1822 13.195 82.1822 13.8073V16.9059H80.4975V14.0597C80.4975 13.7906 80.4475 13.5954 80.347 13.4743C80.2471 13.3532 80.0797 13.2927 79.8461 13.2927C79.5451 13.2927 79.3008 13.4003 79.1138 13.6156C79.1206 13.73 79.1239 13.905 79.1239 14.1404V16.9059H77.4392V13.9891C77.4392 13.7401 77.396 13.5618 77.309 13.4541C77.2219 13.3465 77.068 13.2927 76.8479 13.2927C76.5065 13.2927 76.2128 13.4844 75.9651 13.8679V16.9059H74.2703V12.0613Z" fill="#3D3A2C"/>
</g>
</svg>
